<?xml version="1.0" standalone="no"?>
<!DOCTYPE svg PUBLIC "-//W3C//DTD SVG 1.1//EN" "http://www.w3.org/Graphics/SVG/1.1/DTD/svg11.dtd" >
<!--
2013-9-30: Created.
-->
<svg>
<metadata>
Created by iconfont
</metadata>
<defs>

<font id="iconfont" horiz-adv-x="1024" >
  <font-face
    font-family="iconfont"
    font-weight="500"
    font-stretch="normal"
    units-per-em="1024"
    ascent="896"
    descent="-128"
  />
    <missing-glyph />
    
    <glyph glyph-name="qitabiankuang" unicode="&#59026;" d="M1021.291005 896v-1024H2.708995V896h1018.58201z m-108.359788-108.359788H111.068783v-807.280424h801.862434V787.640212zM566.179894 896v-455.111111h455.111111v-108.359788h-455.111111v-460.529101H457.820106v460.529101H2.708995V440.888889h455.111111V896h108.359788z"  horiz-adv-x="1024" />

    
    <glyph glyph-name="cudikuangxian" unicode="&#59027;" d="M568.357926 820.137312V440.888889H947.606349v-108.359788h-379.248423v-379.248424h-108.359788V332.529101H80.749714V440.888889h379.248424V820.137312h108.359788zM1021.291005 896v-1024H2.708995V896h1018.58201z m-108.359788-108.359788H111.068783v-807.280424h801.862434V787.640212zM1021.291005-14.222222v-108.359789H2.708995v108.359789zM1021.291005 94.137566v-108.359788H2.708995v108.359788z"  horiz-adv-x="1024" />

    
    <glyph glyph-name="shangxiakuangxian" unicode="&#59028;" d="M568.357926 820.137312V440.888889H947.606349v-108.359788h-379.248423v-379.248424h-108.359788V332.529101H80.749714V440.888889h379.248424V820.137312h108.359788zM1021.291005 896v-1024H2.708995V896h1018.58201z m-108.359788-108.359788H111.068783v-807.280424h801.862434V787.640212zM1021.291005-14.222222v-108.359789H2.708995v108.359789zM1021.291005 896v-108.359788H2.708995V896z"  horiz-adv-x="1024" />

    
    <glyph glyph-name="cuxiakuangxian" unicode="&#59029;" d="M568.357926 820.137312V440.888889H947.606349v-108.359788h-379.248423v-379.248424h-108.359788V332.529101H80.749714V440.888889h379.248424V820.137312h108.359788zM1021.291005 896v-1024H2.708995V896h1018.58201z m-184.21164-184.21164H186.920635v-655.57672h650.15873V711.78836z"  horiz-adv-x="1024" />

    
    <glyph glyph-name="shangkuangxianhecuxiakuangxian" unicode="&#59030;" d="M568.357926 820.137312V440.888889H947.606349v-108.359788h-379.248423v-379.248424h-108.359788V332.529101H80.749714V440.888889h379.248424V820.137312h108.359788zM1021.291005 896v-1024H2.708995V896h1018.58201z m-108.359788-108.359788H111.068783v-807.280424h801.862434V787.640212zM1021.291005-14.222222v-108.359789H2.708995v108.359789zM1021.291005 94.137566v-108.359788H2.708995v108.359788zM1021.291005 896v-108.359788H2.708995V896z"  horiz-adv-x="1024" />

    
    <glyph glyph-name="shangkuangxianheshuangxiakuangxian" unicode="&#59031;" d="M568.357926 820.137312V440.888889H947.606349v-108.359788h-379.248423v-379.248424h-108.359788V332.529101H80.749714V440.888889h379.248424V820.137312h108.359788zM1021.291005 896v-1024H2.708995V896h1018.58201z m-108.359788-108.359788H111.068783v-807.280424h801.862434V787.640212zM1021.291005-14.222222v-108.359789H2.708995v108.359789zM1021.291005 148.31746v-108.359788H2.708995v108.359788zM1021.291005 896v-108.359788H2.708995V896z"  horiz-adv-x="1024" />

    
    <glyph glyph-name="nishizhenjiaodu" unicode="&#59032;" d="M1074.092585 595.367995v-257.806463l-91.817772 91.376454-559.662392-556.937986-81.402657 81.002528L900.87804 509.940514 815.026893 595.367995h259.065692zM193.532846 565.829081l2.330161-0.005884c34.770009-0.070611 68.78095-16.734795 102.032823-49.986669l174.185446-174.185445-57.471429-57.47143-35.8939 35.8939c2.88328-24.566726-0.647267-48.150784-8.979359-71.264101-9.973797-25.808302-26.891004-51.175286-51.292971-75.577254-29.274123-29.274123-59.436767-44.661426-90.499701-47.215189-32.127982-2.565531-59.272008 7.231738-81.967545 29.927275-30.621615 30.615731-42.443065 66.297798-33.863835 107.599319 6.931642 38.606537 30.480394 79.043075 70.628603 121.303728l59.678022 62.843746-10.556337 10.562221c-35.8939 35.8939-73.370662 33.245989-113.48945-6.872799-17.352641-17.346757-28.267917-33.540201-32.233899-50.174964-5.066336-18.794281-2.642026-37.482646 8.355629-54.988278L28.47975 289.70496C4.354342 325.75185-2.630258 363.105043 8.043764 401.223188 15.975727 434.498598 38.365283 468.49777 74.141498 504.285754c41.207374 41.207374 82.144072 62.078794 121.715625 61.543327z m99.055395-165.935733l-54.182136-57.312555c-47.274031-49.357054-54.499885-89.911277-22.213028-122.204017 9.373604-9.373604 20.900841-13.469039 35.646761-11.221257 14.74592 2.247782 29.009332 9.220613 42.284191 22.489587 23.360456 23.360456 36.235186 49.78072 39.142003 78.725326 2.389004 29.468303-6.302027 55.147152-27.138142 75.977382l-13.533765 13.53965zM409.031582 843.983267C448.850274 883.807843 494.470832 900.60148 546.440491 894.911415c47.680044-5.707718 92.076679-28.579782 132.648554-69.151658 42.178274-42.178274 66.121271-87.645842 71.287639-135.861352 5.154599-52.505126-12.715855-99.208385-53.611364-140.103894-36.588241-36.588241-76.848251-52.287409-120.780031-47.103388l29.362387-29.362387-57.035995-57.035995L159.63959 804.953064 220.988737 866.296327l150.554315-150.554314c-7.826047 53.034708 5.201673 95.960281 37.482646 128.247138z m141.45727-21.53634c-31.027628 5.389969-60.431205-5.801866-87.675263-33.045925-19.771066-19.771066-27.761872-43.825863-24.513768-72.71751 2.712637-31.563095 19.335632-62.078794 48.792166-91.535329l4.289616-4.283731c26.773319-26.779203 54.61757-43.93178 83.509217-49.315864 31.563095-5.925436 59.372041 2.594952 83.409185 26.632097 26.714476 26.714476 36.835379 56.118053 30.374477 88.222498-5.919551 26.2202-23.607594 54.594033-53.599596 84.586034-29.992001 29.992001-58.365835 46.614996-84.58015 51.45773z"  horiz-adv-x="1076" />

    
    <glyph glyph-name="suoyoukuangxian" unicode="&#59033;" d="M568.357926 820.137312V440.888889H947.606349v-108.359788h-379.248423v-379.248424h-108.359788V332.529101H80.749714V440.888889h379.248424V820.137312h108.359788zM1021.291005 896v-1024H2.708995V896h1018.58201z m-108.359788-108.359788H111.068783v-807.280424h801.862434V787.640212z"  horiz-adv-x="1024" />

    
    <glyph glyph-name="shuangdikuangxian" unicode="&#59034;" d="M568.357926 820.137312V440.888889H947.606349v-108.359788h-379.248423v-379.248424h-108.359788V332.529101H80.749714V440.888889h379.248424V820.137312h108.359788zM1021.291005 896v-1024H2.708995V896h1018.58201z m-108.359788-108.359788H111.068783v-807.280424h801.862434V787.640212zM1021.291005-14.222222v-108.359789H2.708995v108.359789zM1021.291005 148.31746v-108.359788H2.708995v108.359788z"  horiz-adv-x="1024" />

    
    <glyph glyph-name="xiangshang" unicode="&#59035;" d="M0-128V896h1024v-1024H0z m91.022222 91.022222h841.955556V804.977778H91.022222v-841.955556z m307.2 122.038045V463.627378H266.877156L517.688889 714.439111l250.811733-250.811733h-127.527822v-378.567111H398.222222z"  horiz-adv-x="1024" />

    
    <glyph glyph-name="waicekuangxian" unicode="&#59036;" d="M568.357926 820.137312V440.888889H947.606349v-108.359788h-379.248423v-379.248424h-108.359788V332.529101H80.749714V440.888889h379.248424V820.137312h108.359788zM1021.291005 896v-1024H2.708995V896h1018.58201z m-108.359788-108.359788H111.068783v-807.280424h801.862434V787.640212z"  horiz-adv-x="1024" />

    
    <glyph glyph-name="shangbiankuang" unicode="&#59037;" d="M568.061305 815.147116V437.894737H945.313684v-107.789474h-377.252379v-377.252379h-107.789473V330.105263H83.019453V437.894737h377.252379V815.147116h107.789473zM1018.610526 890.610526v-1018.610526H5.389474V890.610526h1013.221052z m-107.789473-107.789473H113.178947v-803.031579h797.642106V782.821053zM1018.610526 892.275874v-107.789474H5.389474v107.789474z"  horiz-adv-x="1024" />

    
    <glyph glyph-name="xiangxia" unicode="&#59038;" d="M1024 896v-1024H0V896h1024z m-91.022222-91.022222H91.022222v-841.955556h841.955556V804.977778z m-307.2-122.038045v-378.567111h131.345066L506.311111 53.560889l-250.811733 250.811733h127.527822V682.939733H625.777778z"  horiz-adv-x="1024" />

    
    <glyph glyph-name="xiangzuo" unicode="&#59039;" d="M1024-128H0V896h1024v-1024z m-91.022222 91.022222V804.977778H91.022222v-841.955556h841.955556z m-122.038045 307.2H432.372622v-131.345066L181.560889 389.688889l250.811733 250.811733v-127.527822h378.567111V270.222222z"  horiz-adv-x="1024" />

    
    <glyph glyph-name="shupaiwenzi" unicode="&#59040;" d="M408.029867 180.023467L275.2 47.189333l-132.181333 132.181334 93.9264 0.2304 1.3952 572.501333 83.268266 0.2048-1.3952-572.501333 87.816534 0.213333z m370.653866 309.0944h-58.9312v36.808533c-11.118933-14.071467-25.019733-24.3584-41.143466-31.936-18.346667-8.119467-40.029867-12.450133-65.045334-12.450133-30.024533 0-53.376 7.5776-70.613333 22.1952-17.792 15.1552-26.683733 34.0992-26.683733 57.373866 0 31.394133 12.232533 55.748267 37.802666 72.529067 23.355733 16.238933 56.157867 24.900267 98.410667 25.984l62.826667 1.621333v10.824534c0 36.808533-20.573867 54.6688-61.713067 54.6688-17.792 0-31.6928-2.705067-42.257067-9.2032-12.228267-7.035733-20.5696-17.860267-23.906133-32.4736l-62.8224 4.868266c6.114133 30.852267 21.6832 53.589333 46.698667 67.6608 21.128533 12.992 50.039467 18.944 86.7328 18.944 42.2528 0 73.941333-10.282667 93.960533-30.852266 17.792-17.860267 26.683733-43.844267 26.683733-77.943467v-178.619733z m26.961067-295.278934c0-43.246933-11.037867-78.8352-33.109333-106.205866-24.277333-29.563733-57.386667-44.343467-99.323734-44.343467-37.521067 0-66.2144 12.586667-86.075733 37.7728v-30.109867H528.64v398.549334h62.903467v-154.3808c23.176533 31.2064 51.869867 46.532267 84.974933 46.532266 40.832 0 72.836267-14.779733 96.5632-44.343466 21.521067-27.370667 32.554667-61.8624 32.554667-103.466667z m-89.130667 403.285334v13.883733l-57.1648-1.6c-49.540267-1.066667-74.043733-18.158933-74.043733-51.268267 0-9.6128 3.8144-17.621333 12.522667-24.029866 8.712533-6.408533 19.601067-10.146133 33.211733-10.146134 23.957333 0 44.100267 6.941867 60.433067 20.292267 16.3328 13.883733 25.045333 31.509333 25.045333 52.868267z m38.698667-405.777067c0 30.7584-6.0288 53.824-16.981333 69.751467-13.149867 18.6752-33.966933 28.010667-61.909334 28.010666-20.266667 0-36.6976-8.234667-49.847466-24.712533-14.788267-17.578667-21.9136-41.7408-21.9136-71.9488v-4.394667c0-27.464533 5.4784-50.530133 17.531733-68.104533 13.1456-19.2256 31.773867-29.111467 56.4224-29.111467 27.392 0 47.658667 9.885867 60.808533 29.6576 10.410667 16.477867 15.889067 40.093867 15.889067 70.852267z"  horiz-adv-x="1024" />

    
    <glyph glyph-name="shunshizhenjiaodu" unicode="&#59041;" d="M713.224393-122.460328H468.074317l86.888918 87.314186L25.342601 497.065268 102.372022 574.475191l529.615038-532.21141 81.237333 81.640219v-246.364328z m-28.090054 837.369006l-0.005596-2.215869c-0.067148-33.064568-15.908372-65.407301-47.534863-97.028197L471.952087 450.028415l-54.652502 54.652503 34.133333 34.133333c-23.361749-2.741858-45.789027 0.615519-67.76306 8.538929-24.548022 9.48459-48.670776 25.572022-71.870251 48.777093-27.843847 27.838251-42.47082 56.521443-44.899323 86.060765-2.44529 30.552131 6.871432 56.370361 28.459366 77.947104 29.108459 29.11965 63.04035 40.361268 102.316066 32.208437 36.712918-6.602842 75.166077-28.985355 115.35388-67.169923l59.761311-56.750864 10.044153 10.038558c34.133333 34.133333 31.615301 69.771891-6.535694 107.922885-16.495913 16.501508-31.895082 26.881399-47.713923 30.652852-17.866842 4.817836-35.644153 2.518033-52.285552-7.945792l-53.746011 62.782951C456.838295 894.802536 492.353749 901.444546 528.607825 891.299672c31.637683-7.542907 63.969224-28.834273 97.996241-62.861289 39.186186-39.186186 59.03388-78.109377 58.524677-115.745574z m-157.796722-94.196809L472.830601 672.23082c-46.936131 44.955279-85.501202 51.82671-116.204415 21.123497-8.913836-8.913836-12.813989-19.875672-10.676459-33.898317 2.13753-14.022645 8.76835-27.586448 21.392087-40.20459 22.214645-22.214645 47.333421-34.45788 74.858317-37.227716 28.022907-2.26623 52.44223 5.992918 72.25635 25.807038l12.869945 12.869946z m422.313268-110.731891c37.865617-37.865617 53.841137-81.248525 48.424569-130.669115-5.42776-45.341377-27.177967-87.560393-65.759826-126.142251-40.109464-40.109464-83.34129-62.878077-129.197464-67.791038-49.929792-4.90177-94.342295 12.092153-133.231913 50.98177-34.793617 34.793617-49.722754 73.078907-44.793005 114.855869l-27.922186-27.922186-54.238426 54.238427 369.596852 369.602448 58.334427-58.334427-143.164153-143.169748c50.427803 7.442186 91.253508-4.946536 121.951125-35.644153z m-20.48-128.923279c5.131191 29.505749-5.51729 57.467104-31.425049 83.374864-18.801311 18.801311-41.67624 26.400175-69.150776 23.311388-30.014951-2.579585-59.03388-18.387235-87.04-46.398951l-4.079213-4.073617c-25.460109-25.471301-41.776962-51.938623-46.896962-79.418755-5.634798-30.014951 2.467672-56.459891 25.33141-79.318032 25.398557-25.404153 53.365508-35.028634 83.889661-28.884634 24.93412 5.629202 51.91624 22.449661 80.437159 50.976175 28.520918 28.515322 44.328568 55.497443 48.939366 80.425967z"  horiz-adv-x="1024" />

    
    <glyph glyph-name="xiangyou" unicode="&#59042;" d="M0 896h1024v-1024H0V896z m91.022222-91.022222v-841.955556h841.955556V804.977778H91.022222z m122.038045-307.2h378.567111V629.122844L842.439111 378.311111l-250.811733-250.811733v127.527822H213.060267V497.777778z"  horiz-adv-x="1024" />

    
    <glyph glyph-name="xiangshangxuanzhuanwenzi" unicode="&#59043;" d="M866.840675 895.895133l191.105542-191.105543-135.797205-0.333108-2.023325-827.712771-120.387856-0.296097 2.023326 827.712772-126.963663-0.308434L866.840675 895.895133zM576.610699 337.722602v-85.201735h-53.210988c20.344289-16.081735 35.216964-36.173108 46.17253-59.48453 11.738988-26.525301 17.994024-57.874506 17.994024-94.047614 0-43.402795-10.955566-77.17012-32.077108-102.085398-21.917301-25.723373-49.306217-38.578892-82.956338-38.578891-45.389108 0-80.599904 17.679422-104.86747 54.654458-23.471807 33.761157-35.994217 81.185928-37.554891 142.280481l-2.344097 90.827567h-15.656096c-53.217157 0-79.039229-29.739181-79.039229-89.223711 0-25.723373 3.91094-45.814747 13.305831-61.088386 10.172145-17.68559 25.822072-29.739181 46.949784-34.563084l-7.044627-90.833735c-44.599518 8.84588-77.472386 31.349205-97.816675 67.522313-18.783614 30.541108-27.388916 72.340048-27.388915 125.39682 0 61.088386 14.866506 106.903133 44.599518 135.840385 25.828241 25.723373 63.39547 38.58506 112.695518 38.58506h258.239229z m-156.147663-89.87759h-20.072867l2.313253-82.654072c1.542169-71.630651 26.25388-107.051181 74.122795-107.051181 13.898024 0 25.476627 5.508627 34.741976 18.10506 9.265349 12.596434 14.669108 28.338892 14.669108 48.016964 0 34.63094-10.036434 63.753253-29.338217 87.373109-20.072867 23.613687-45.555663 36.21012-76.436048 36.21012zM371.206169 850.031036c62.531855 0 113.978602-15.952193 153.55065-47.868916 42.748916-35.099759 64.117205-82.968675 64.117205-143.594409 0-54.247325-18.209928-95.731663-54.617446-124.453012h43.532338v-84.560193H1.573012V540.499277h223.201157c-45.111518 33.508241-67.275566 74.992578-67.275567 122.855325 0 59.034217 21.368289 105.305446 64.111037 139.609446 39.578217 31.114795 89.445783 47.066988 149.59653 47.066988z m3.602506-72.913735c-44.469976 0-77.817831-8.710169-100.845494-24.551325-27.000289-19.011855-40.497349-49.102651-40.49735-89.495133 0-29.307373 11.905542-53.069108 35.735133-72.074795 25.408771-21.386795 60.348145-31.682313 104.022361-31.682313h6.353735c39.70159 0 73.049446 7.920578 98.464386 25.347084 27.78988 19.005687 42.082699 45.931952 42.082699 81.574554 0 39.602892-14.292819 68.904096-42.878458 87.915952-23.823422 15.051566-57.967036 22.965976-102.437012 22.965976z"  horiz-adv-x="1061" />

    
    <glyph glyph-name="zuobiankuang" unicode="&#59044;" d="M568.357926 820.137312V440.888889H947.606349v-108.359788h-379.248423v-379.248424h-108.359788V332.529101H80.749714V440.888889h379.248424V820.137312h108.359788zM1021.291005 896v-1024H2.708995V896h1018.58201z m-108.359788-108.359788H111.068783v-807.280424h801.862434V787.640212zM2.708995 896h108.359788v-1018.582011H2.708995z"  horiz-adv-x="1024" />

    
    <glyph glyph-name="wukuangxian" unicode="&#59045;" d="M568.357926 820.137312V440.888889H947.606349v-108.359788h-379.248423v-379.248424h-108.359788V332.529101H80.749714V440.888889h379.248424V820.137312h108.359788zM1021.291005 896v-1024H2.708995V896h1018.58201z m-108.359788-108.359788H111.068783v-807.280424h801.862434V787.640212z"  horiz-adv-x="1024" />

    
    <glyph glyph-name="xiabianxian" unicode="&#59046;" d="M568.357926 820.137312V440.888889H947.606349v-108.359788h-379.248423v-379.248424h-108.359788V332.529101H80.749714V440.888889h379.248424V820.137312h108.359788zM1021.291005 896v-1024H2.708995V896h1018.58201z m-108.359788-108.359788H111.068783v-807.280424h801.862434V787.640212zM1021.291005-14.222222v-108.359789H2.708995v108.359789z"  horiz-adv-x="1024" />

    
    <glyph glyph-name="xiangxiaxuanzhuanwenzi" unicode="&#59047;" d="M261.755373 895.494169l-2.023325-827.71894 126.963663 0.308434-192.043181-192.043181-191.105542 191.105542 135.797205 0.333109L141.367518 895.198072zM486.554217 664.347759c0-36.16694 6.261205-67.516145 18.000193-94.041446 10.955566-23.31759 25.822072-43.408964 46.166361-59.48453h-53.210988v-85.207903h258.245398c49.300048 0 86.861108 12.861687 112.68318 38.58506 29.739181 28.937253 44.605687 74.758169 44.605687 135.846554 0 53.050602-8.605301 94.849542-27.388915 125.396819-20.344289 36.16694-53.210988 58.676434-97.816675 67.516145l-7.044627-90.827566c21.127711-4.823904 36.777639-16.883663 46.955952-34.563085 9.388723-15.273639 13.299663-35.371181 13.299663-61.094554 0-59.478361-25.822072-89.223711-79.039229-89.223711h-15.649928l-2.344096 90.833735c-1.566843 61.088386-14.089253 108.513157-37.567229 142.274313-24.255229 36.975036-59.466024 54.654458-104.861301 54.654458-33.65012 0-61.039036-12.855518-82.950169-38.578891-21.127711-24.921446-32.083277-58.676434-32.083277-102.085398z m61.328964-25.266892c0 19.678072 5.403759 35.42053 14.669108 48.016964 9.265349 12.590265 20.85012 18.098892 34.748145 18.098892 47.868916 0 72.574458-35.42053 74.116626-107.051181l2.319422-82.647903h-20.072868c-30.886554 0-56.363181 12.596434-76.442216 36.21012-19.301783 23.613687-29.338217 52.742169-29.338217 87.373108z m-62.630554-534.318265c0-60.625735 21.368289-108.494651 64.111036-143.594409 39.572048-31.910554 91.024964-47.868916 153.55065-47.868916 60.156916 0 110.024482 15.958361 149.59653 47.066988 42.748916 34.304 64.111036 80.575229 64.111037 139.609446 0 47.868916-22.15788 89.353253-67.275567 122.855325h223.207326V313.781976H496.331566v-84.566362h43.532338c-36.407518-28.721349-54.611277-70.199518-54.611277-124.453012z m68.74371-1.498988c0 35.642602 14.292819 62.568867 42.088868 81.580723 25.408771 17.420337 58.762795 25.340916 98.464385 25.340916h6.353735c43.674217 0 78.61359-10.295518 104.022362-31.676145 23.823422-19.011855 35.728964-42.77359 35.728964-72.074795 0-40.392482-13.49706-70.489446-40.49735-89.495132-23.027663-15.841157-56.381687-24.551325-100.845494-24.551326-44.463807 0-78.61359 7.91441-102.437012 22.965976-28.585639 19.005687-42.872289 48.31306-42.872289 87.909783z"  horiz-adv-x="1073" />

    
    <glyph glyph-name="youbiankuang" unicode="&#59048;" d="M568.357926 820.137312V440.888889H947.606349v-108.359788h-379.248423v-379.248424h-108.359788V332.529101H80.749714V440.888889h379.248424V820.137312h108.359788zM1021.291005 896v-1024H2.708995V896h1018.58201z m-108.359788-108.359788H111.068783v-807.280424h801.862434V787.640212zM912.931217 896h108.359788v-1018.582011h-108.359788z"  horiz-adv-x="1024" />

    
    <glyph glyph-name="baifenbi" unicode="&#58950;" d="M746.666667 307.2c84.829867 0 153.6-68.770133 153.6-153.6s-68.770133-153.6-153.6-153.6-153.6 68.770133-153.6 153.6 68.770133 153.6 153.6 153.6z m103.594666 420.437333a34.133333 34.133333 0 0 0 0.776534-47.4112l-0.836267-0.861866L236.834133 67.511467a34.133333 34.133333 0 0 0-49.045333 47.470933l0.832 0.861867L801.992533 727.697067a34.133333 34.133333 0 0 0 48.2688-0.059734zM746.666667 238.933333c-47.1296 0-85.333333-38.203733-85.333334-85.333333s38.203733-85.333333 85.333334-85.333333 85.333333 38.203733 85.333333 85.333333-38.203733 85.333333-85.333333 85.333333zM302.933333 763.733333c84.829867 0 153.6-68.770133 153.6-153.6s-68.770133-153.6-153.6-153.6-153.6 68.770133-153.6 153.6 68.770133 153.6 153.6 153.6z m0-68.266666c-47.1296 0-85.333333-38.203733-85.333333-85.333334s38.203733-85.333333 85.333333-85.333333 85.333333 38.203733 85.333334 85.333333-38.203733 85.333333-85.333334 85.333334z"  horiz-adv-x="1024" />

    
    <glyph glyph-name="beijingyanse" unicode="&#58951;" d="M797.077333 278.464l77.661867-164.138667A89.181867 89.181867 0 0 0 887.466667 68.266667c0-49.4848-40.1152-89.6-89.6-89.6s-89.6 40.1152-89.6 89.6c0 11.392 2.1248 22.2848 5.998933 32.3072h-0.682667l83.498667 177.890133zM350.848 777.493333l0.861867-0.832 276.906666-276.906666c1.309867-1.3056 2.487467-2.696533 3.541334-4.1472l140.8-140.804267a34.133333 34.133333 0 0 0 0.832-47.4112l-0.836267-0.861867-298.679467-298.679466a34.133333 34.133333 0 0 0-47.4112-0.836267l-0.861866 0.836267-298.679467 298.679466a34.133333 34.133333 0 0 0-0.836267 47.4112l0.836267 0.861867 274.850133 274.858667-98.730666 98.730666a34.133333 34.133333 0 0 0 47.406933 49.1008zM450.133333 581.077333L199.722667 330.666667h500.821333L450.133333 581.077333z"  horiz-adv-x="1024" />

    
    <glyph glyph-name="biankuang" unicode="&#58952;" d="M556.381867 725.3248V426.666667H855.04v-85.333334h-298.658133v-298.658133h-85.333334V341.333333H172.3904v85.333334h298.658133V725.3248h85.333334zM913.066667 785.066667v-806.4H110.933333V785.066667h802.133334z m-85.333334-85.333334H196.266667v-635.733333h631.466666V699.733333z"  horiz-adv-x="1024" />

    
    <glyph glyph-name="biaoge" unicode="&#58953;" d="M896 768v-768H128V768h768zM196.266667 68.266667h157.653333v149.333333H196.266667v-149.333333z m396.586666 149.333333h-170.666666v-149.333333h170.666666v149.333333z m234.88 0h-166.613333v-149.333333H827.733333v149.333333z m0 68.266667v170.666666h-166.613333v-170.666666H827.733333z m-631.466666 0h157.653333v170.666666H196.266667v-170.666666z m396.586666 170.666666h-170.666666v-170.666666h170.666666v170.666666zM827.733333 524.8V699.733333h-166.613333v-174.933333H827.733333zM353.92 699.733333H196.266667v-174.933333h157.653333V699.733333z m238.933333 0h-170.666666v-174.933333h170.666666V699.733333z"  horiz-adv-x="1024" />

    
    <glyph glyph-name="caiwu" unicode="&#58954;" d="M847.054486 782.222222a33.711934 33.711934 0 0 0 33.711934-33.711934v-729.020576a33.711934 33.711934 0 0 0-33.711934-33.711934H194.045893a33.711934 33.711934 0 0 0-33.711934 33.711934l-0.004214 97.410634-32.498305 32.59944a33.711934 33.711934 0 0 0-0.64474 46.93544l0.8133 0.830157 32.329745 31.988411v98.982453l-32.329745 31.984197a33.711934 33.711934 0 0 0-0.817514 47.099786l0.817514 0.834371 32.329745 31.988411v95.994733l-32.329745 31.984197a33.711934 33.711934 0 0 0-0.817514 47.099786l0.817514 0.834371 32.329745 31.988411V748.510288a33.711934 33.711934 0 0 0 32.666864 33.695078l1.049284 0.016856z m-33.711935-67.423868H227.749399v-80.824362a33.711934 33.711934 0 0 0-9.102222-23.050535l-0.89758-0.91865-18.111737-17.913679 18.111737-17.917893a33.711934 33.711934 0 0 0 9.978732-22.683918l0.025284-1.281054v-124.135769a33.711934 33.711934 0 0 0-10.004016-23.969185l-18.111737-17.913679 18.111737-17.913679a33.711934 33.711934 0 0 0 9.978732-22.683918l0.025284-1.285268v-127.127703a33.711934 33.711934 0 0 0-10.004016-23.964971l-18.280297-18.078025 18.444642-18.507852a33.711934 33.711934 0 0 0 9.810173-22.460576l0.029498-1.34005L227.749399 53.201646H813.342551V714.798354zM419.089909 584.729284l0.851227-0.821728 109.3573-109.357301 109.357301 109.357301a33.711934 33.711934 0 0 0 46.825876 0.821728l0.851227-0.821728a33.711934 33.711934 0 0 0 0.821728-46.821663l-0.821728-0.851226-94.646256-94.642041 59.859753-0.071638a33.711934 33.711934 0 0 0 0.969219-67.407013l-1.053498-0.016856-88.451688 0.10535v-29.552724h88.493828a33.711934 33.711934 0 0 0 1.053497-67.407012l-1.053497-0.016856h-88.493828v-82.223408a33.711934 33.711934 0 0 0-67.407012-1.053498l-0.016856 1.053498v82.223408H408.314733a33.711934 33.711934 0 0 0-1.049284 67.407012l1.053498 0.016856h87.259127v29.637004l-87.301267 0.10535a33.711934 33.711934 0 0 0-0.969219 67.411226l1.053498 0.012642 58.384856-0.071638L372.264033 536.234667a33.711934 33.711934 0 0 0 46.825876 48.494617z"  horiz-adv-x="1024" />

    
    <glyph glyph-name="baocunbanben" unicode="&#58955;" d="M709.930667 755.2L887.466667 577.664V8.533333H140.8V755.2h569.130667zM793.6 392.533333H234.666667v-290.133333h558.933333v290.133333z m-46.933333-34.133333v-93.866667h-93.866667v93.866667h93.866667z m-115.2 298.666667H234.666667v-115.2h396.8V657.066667z"  horiz-adv-x="1024" />

    
    <glyph glyph-name="chazhao" unicode="&#58956;" d="M456.533333 780.8c188.514133 0 341.333333-152.8192 341.333334-341.333333s-152.8192-341.333333-341.333334-341.333334-341.333333 152.8192-341.333333 341.333334 152.8192 341.333333 341.333333 341.333333z m0-76.8c-146.0992 0-264.533333-118.434133-264.533333-264.533333 0-146.0992 118.434133-264.533333 264.533333-264.533334 146.0992 0 264.533333 118.434133 264.533334 264.533334 0 146.0992-118.434133 264.533333-264.533334 264.533333zM684.219733 270.353067l222.395734-222.395734-54.306134-54.306133-222.395733 222.395733z"  horiz-adv-x="1024" />

    
    <glyph glyph-name="charu" unicode="&#58957;" d="M621.098667 192a34.133333 34.133333 0 0 0 34.133333-34.133333v-162.133334a34.133333 34.133333 0 0 0-34.133333-34.133333h-473.6a34.133333 34.133333 0 0 0-34.133334 34.133333v162.133334a34.133333 34.133333 0 0 0 34.133334 34.133333z m-34.133334-68.266667h-405.333333v-93.866666h405.333333v93.866666zM277.5808 502.6816a34.133333 34.133333 0 0 0 0.832-47.4112l-0.832-0.861867-84.245333-84.241066 84.245333-84.241067a34.133333 34.133333 0 0 0 0.832-47.4112l-0.832-0.861867a34.133333 34.133333 0 0 0-47.4112-0.832l-0.861867 0.832-108.373333 108.3776a34.133333 34.133333 0 0 0-0.836267 47.4112l0.832 0.861867 108.3776 108.373333a34.133333 34.133333 0 0 0 48.273067 0zM872.832 499.2a34.133333 34.133333 0 0 0 34.133333-34.133333v-162.133334a34.133333 34.133333 0 0 0-34.133333-34.133333h-473.6a34.133333 34.133333 0 0 0-34.133333 34.133333v162.133334a34.133333 34.133333 0 0 0 34.133333 34.133333z m-34.133333-68.266667h-405.333334v-93.866666h405.333334v93.866666z m-217.6 349.866667a34.133333 34.133333 0 0 0 34.133333-34.133333v-162.133334a34.133333 34.133333 0 0 0-34.133333-34.133333h-473.6a34.133333 34.133333 0 0 0-34.133334 34.133333V746.666667a34.133333 34.133333 0 0 0 34.133334 34.133333z m-34.133334-68.266667h-405.333333v-93.866666h405.333333V712.533333z"  horiz-adv-x="1024" />

    
    <glyph glyph-name="chuizhiduiqi" unicode="&#58958;" d="M912.768 413.866667v-59.733334H110.933333v59.733334zM328.533333 725.333333h349.866667v-691.2H328.533333zM678.4 725.333333v-691.2H328.533333V725.333333h349.866667z m-76.8-76.8H405.333333v-537.6h196.266667V648.533333z"  horiz-adv-x="1024" />

    
    <glyph glyph-name="chuangjianzu" unicode="&#58959;" d="M861.866667 763.733333v-746.666666H392.533333V763.733333h469.333334z m-68.266667-520.533333h-332.8v-157.866667h332.8v157.866667zM265.838933 497.8944L265.834667 422.4H341.333333v-68.266667H265.834667v-78.1056h-68.266667V354.133333H119.466667v68.266667h78.101333V497.8944h68.266667zM793.6 469.333333h-332.8v-157.866666h332.8v157.866666z m0 226.133334h-332.8v-157.866667h332.8V695.466667z"  horiz-adv-x="1024" />

    
    <glyph glyph-name="danyuangeleixing" unicode="&#58960;" d="M908.8 780.8v-785.066667H123.733333V780.8h785.066667zM315.733333 354.133333H192v-290.133333h123.733333v290.133333z m328.533334 132.266667H384v-217.595733l260.266667-0.004267v-68.266667l-260.266667 0.004267V64h260.266667V486.4z m196.266666-132.266667h-128v-290.133333h128v290.133333z m0 358.4h-128v-290.133333h128V712.533333zM315.733333 712.533333H192v-290.133333h123.733333V712.533333z m328.533334 0H384v-157.866666h260.266667V712.533333z"  horiz-adv-x="1024" />

    
    <glyph glyph-name="chexiao" unicode="&#58961;" d="M395.255467 323.2896c89.143467 9.732267 179.584 1.979733 271.325866-23.253333 91.7376-25.2416 183.338667-110.122667 274.807467-254.651734 0 94.6048-13.354667 170.368-40.064 227.281067-40.064 85.371733-50.935467 130.423467-159.505067 204.330667-72.379733 49.2672-187.904 72.1408-346.564266 68.6208V655.7312a21.333333 21.333333 0 0 1-36.1984 15.300267L105.514667 424.7296a21.333333 21.333333 0 0 1 0.571733-31.133867l253.546667-228.923733a21.333333 21.333333 0 0 1 35.626666 15.837867z"  horiz-adv-x="1024" />

    
    <glyph glyph-name="chazhaoyuyinyong" unicode="&#58962;" d="M852.932267 790.826667a34.133333 34.133333 0 0 0 34.133333-34.133334v-738.133333a34.133333 34.133333 0 0 0-34.133333-34.133333H191.752533a34.133333 34.133333 0 0 0-34.133333 34.133333l-0.004267 98.628267-32.904533 33.006933a34.133333 34.133333 0 0 0-0.6528 47.522133l0.823467 0.840534 32.733866 32.388266v100.219734l-32.733866 32.384a34.133333 34.133333 0 0 0-0.827734 47.688533l0.827734 0.8448 32.733866 32.388267v97.194666l-32.733866 32.384a34.133333 34.133333 0 0 0-0.827734 47.684267l0.827734 0.849067 32.733866 32.388266V756.693333a34.133333 34.133333 0 0 0 33.0752 34.116267l1.0624 0.017067z m-34.1376-68.266667H225.8816v-81.838933a34.133333 34.133333 0 0 0-9.216-23.3344l-0.9088-0.930134-18.338133-18.1376 18.338133-18.141866a34.133333 34.133333 0 0 0 10.103467-22.967467l0.0256-1.297067v-125.687466a34.133333 34.133333 0 0 0-10.129067-24.2688l-18.338133-18.1376 18.338133-18.1376a34.133333 34.133333 0 0 0 10.103467-22.967467l0.0256-1.301333v-128.7168a34.133333 34.133333 0 0 0-10.129067-24.264534l-18.5088-18.304 18.6752-18.7392a34.133333 34.133333 0 0 0 9.9328-22.741333l0.029867-1.3568-0.004267-78.596267h592.913067v669.866667z m-337.109334-102.4c115.464533 0 209.066667-93.602133 209.066667-209.066667 0-39.893333-11.178667-77.184-30.5664-108.898133l101.632-101.632-48.2688-48.273067-98.107733 98.116267a208.2176 208.2176 0 0 0-133.755734-48.379733c-115.464533 0-209.066667 93.602133-209.066666 209.066666s93.602133 209.066667 209.066666 209.066667z m0-68.266667c-77.76 0-140.8-63.04-140.8-140.8s63.04-140.8 140.8-140.8 140.8 63.04 140.8 140.8-63.04 140.8-140.8 140.8z"  horiz-adv-x="1024" />

    
    <glyph glyph-name="daochu" unicode="&#58963;" d="M196.266667 456.533333v-390.4h644.266666V452.266667h68.266667v-454.4H128V456.533333h68.266667z m322.090666 320l213.2992-224.256h-148.7616V213.333333h-129.066666V552.277333H305.066667L518.357333 776.533333z"  horiz-adv-x="1024" />

    
    <glyph glyph-name="danyuangexialakuang" unicode="&#58964;" d="M908.8 780.8l-0.004267-460.8h-68.266666l0.004266 34.133333h-128l-0.004266-34.133333h-68.266667L644.266667 486.4H384v-217.595733l191.995733-0.004267v-68.266667L384 200.5376V64h191.995733v-68.266667H123.733333V780.8h785.066667zM315.733333 354.133333H192v-290.133333h123.733333v290.133333z m524.8 358.4h-128v-290.133333h128V712.533333zM315.733333 712.533333H192v-290.133333h123.733333V712.533333z m328.533334 0H384v-157.866666h260.266667V712.533333zM960 320v-384h-384v384h384z m-64-64h-256v-256h256v256zM678.4 173.597867l89.6-89.6 89.6 89.6z"  horiz-adv-x="1024" />

    
    <glyph glyph-name="danyuangeyangshi" unicode="&#58965;" d="M315.733333 354.133333H192v-290.133333h123.733333v290.133333z m68.266667-290.133333h260.266667v19.5968l68.266666 68.266667V64h128v215.867733l68.266667 68.266667V-4.266667H123.733333V780.8h785.066667v-306.3296l-35.387733 35.387733L862.0928 520.533333 840.533333 499.460267V712.533333h-128v-290.133333h49.181867L644.266667 307.575467V264.533333H384v-200.533333zM315.733333 712.533333H192v-290.133333h123.733333V712.533333z m328.533334 0H384v-157.866666h260.266667V712.533333z m-260.266667-379.733333h260.266667V486.4H384v-153.6zM897.194667 534.344533l-35.524267 33.5104L486.4 200.96v-168.3328h155.178667l378.666666 378.666667-123.050666 123.050666z m-35.0464-61.4912l61.550933-61.550933-310.4-310.4H554.666667v71.338667l307.4816 300.612266z"  horiz-adv-x="1024" />

    
    <glyph glyph-name="danyuangezhuangtai" unicode="&#58966;" d="M908.8 780.8v-785.066667H123.733333V780.8h785.066667z m-294.903467-289.3568h-6.523733c-6.549333 0-12.667733-1.8432-17.864533-5.0432H384v-153.6h189.239467v-46.912a33.988267 33.988267 0 0 0-7.509334-21.358933L502.382933 264.533333l-0.059733 0.021334a27.264 27.264 0 0 1-19.8528-0.021334H384v-200.533333l189.610667-0.004267a34.141867 34.141867 0 0 1 33.762133-29.085866H832a34.133333 34.133333 0 0 1 34.133333 34.133333v196.194133c0 15.901867-10.88 29.269333-25.6 33.058134V354.133333h-128v-54.762666h-30.370133a34.133333 34.133333 0 0 0-34.133333 34.133333v123.805867a33.988267 33.988267 0 0 1-3.754667 15.581866L644.266667 486.4h-12.5056a33.975467 33.975467 0 0 1-17.864534 5.0432zM315.733333 354.133333H192v-290.133333h123.733333v290.133333z m524.8 358.4h-128v-290.133333h128V712.533333zM315.733333 712.533333H192v-290.133333h123.733333V712.533333z m328.533334 0H384v-157.866666h260.266667V712.533333zM607.3728 559.709867l-1.693867-0.0128c-55.773867-0.904533-100.706133-46.4-100.706133-102.3872v-123.434667l-1.3952 0.170667c-40.917333 4.821333-81.8304-17.378133-98.9696-57.147734a95.624533 95.624533 0 0 1-7.808-37.845333v-22.4384l0.017067-1.8432a102.4 102.4 0 0 1 48.977066-85.525333l59.178667-36.177067v-24.0256c0-56.554667 45.845333-102.4 102.4-102.4H832c56.554667 0 102.4 45.845333 102.4 102.4v196.194133l-0.0128 1.693867c-0.904533 55.773867-46.4 100.706133-102.3872 100.706133h-115.707733v89.672534c0 56.554667-45.841067 102.4-102.4 102.4h-6.519467z m6.523733-68.266667a34.133333 34.133333 0 0 0 34.116267-33.066667l0.017067-1.066666v-123.805867a34.133333 34.133333 0 0 1 33.066666-34.116267l1.066667-0.017066H832a34.133333 34.133333 0 0 0 34.116267-33.070934l0.017066-1.066666v-196.189867a34.133333 34.133333 0 0 0-33.066666-34.116267l-1.066667-0.017066h-224.6272a34.133333 34.133333 0 0 0-34.116267 33.066666l-0.017066 1.066667V112.213333a34.133333 34.133333 0 0 1-15.296 28.462934l-1.0368 0.661333-75.5072 46.152533a34.133333 34.133333 0 0 0-16.311467 27.899734l-0.021333 1.224533v22.442667a27.357867 27.357867 0 0 0 37.256533 25.4976l0.925867-0.379734 22.3488-9.629866a34.133333 34.133333 0 0 1 47.624533 30.280533l0.017067 1.066667v171.4176a34.133333 34.133333 0 0 0 33.066666 34.116266l1.066667 0.017067h6.523733z"  horiz-adv-x="1024" />

    
    <glyph glyph-name="dibuduiqi" unicode="&#58967;" d="M328.533333 789.333333h349.866667v-691.2H328.533333zM678.4 789.333333v-691.2H328.533333V789.333333h349.866667z m-76.8-76.8H405.333333v-537.6h196.266667V712.533333zM912.768 42.666667v-59.733334H110.933333v59.733334z"  horiz-adv-x="1024" />

    
    <glyph glyph-name="fenleihuizong" unicode="&#58968;" d="M861.866667 17.066667H392.533333V763.733333h469.333334v-746.666666z m-68.266667 226.133333h-332.8v-157.866667h332.8v157.866667z m0 226.133333h-332.8v-157.866666h332.8v157.866666z m0 226.133334h-332.8v-157.866667h332.8V695.466667zM331.677867 650.666667v-68.266667H251.733333v-406.737067h79.944534v-68.266666H183.466667V650.666667z"  horiz-adv-x="1024" />

    
    <glyph glyph-name="dongjiechuangge" unicode="&#58969;" d="M896 768v-768H128V768h768zM196.266667 266.350933V68.266667h194.3808L196.266667 266.350933zM827.733333 349.866667h-281.6v-281.6h281.6v281.6z m-349.866666 0H209.954133L477.866667 76.859733V349.866667zM196.266667 689.0112V418.133333h265.821866L196.266667 689.0112z m349.866666 0.469333V418.133333h266.2784L546.133333 689.480533zM477.866667 699.733333H281.3952L477.866667 499.52V699.733333z m349.866666 0h-196.014933L827.733333 499.989333V699.733333z"  horiz-adv-x="1024" />

    
    <glyph glyph-name="dingbuduiqi" unicode="&#58970;" d="M328.533333 669.866667h349.866667v-691.2H328.533333zM678.4 669.866667v-691.2H328.533333V669.866667h349.866667z m-76.8-76.8H405.333333v-537.6h196.266667V593.066667zM912.768 780.8v-59.733333H110.933333V780.8z"  horiz-adv-x="1024" />

    
    <glyph glyph-name="fangxiang" unicode="&#58971;" d="M893.888 540.151467v-184.938667l-65.834667 65.544533-401.28-399.5264-58.368 58.112 401.284267 399.5264-61.550933 61.282134h185.749333z m-631.3856-21.162667l1.668267-0.008533c24.9344-0.055467 49.3312-12.010667 73.186133-35.8656l124.9536-124.9536-41.2032-41.207467-25.749333 25.745067c2.069333-17.621333-0.456533-34.530133-6.4256-51.106134-7.150933-18.5088-19.285333-36.6976-36.778667-54.190933-20.992-20.992-42.615467-32.017067-64.891733-33.847467-23.04-1.834667-42.513067 5.1968-58.794667 21.4784-21.9648 21.9648-30.4512 47.556267-24.3072 77.175467 4.9664 27.6864 21.845333 56.6784 50.632533 86.980267l42.794667 45.064533-7.5776 7.573333c-25.745067 25.749333-52.625067 23.863467-81.390933-4.906666-12.4416-12.437333-20.266667-24.0512-23.108267-35.9808-3.630933-13.474133-1.890133-26.88 6.0032-39.432534L144.170667 320.981333c-17.3056 25.856-22.3232 52.6464-14.677334 79.982934 5.687467 23.863467 21.7344 48.2432 47.394134 73.898666 29.5424 29.5424 58.897067 44.509867 87.278933 44.117334zM333.568 399.957333l-38.848-41.092266c-33.8944-35.387733-39.069867-64.4736-15.9104-87.637334 6.724267-6.724267 14.993067-9.664 25.570133-8.055466 10.5728 1.608533 20.8 6.6048 30.318934 16.123733 16.746667 16.746667 25.975467 35.690667 28.0576 56.448 1.706667 21.137067-4.5312 39.552-19.473067 54.498133l-9.7152 9.7152z m83.4304 318.481067c28.548267 28.548267 61.269333 40.584533 98.538667 36.4928 34.197333-4.100267 66.039467-20.514133 95.146666-49.621333 30.2592-30.250667 47.4368-62.865067 51.153067-97.4464 3.703467-37.6576-9.105067-71.146667-38.4256-100.4672-26.24-26.24-55.108267-37.4912-86.613333-33.762134l21.064533-21.064533-40.896-40.896-278.813867 278.813867 43.9808 43.9808L390.144 626.474667c-5.627733 38.037333 3.712 68.821333 26.862933 91.972266z m84.5824-28.125867c-22.2592 3.869867-43.349333-4.155733-62.882133-23.688533-14.1696-14.173867-19.899733-31.428267-17.565867-52.1472 1.954133-22.634667 13.879467-44.522667 35.012267-65.655467l3.072-3.072c19.2128-19.2128 39.1808-31.517867 59.904-35.387733 22.638933-4.253867 42.581333 1.851733 59.818666 19.089067 19.1488 19.153067 26.4064 40.238933 21.768534 63.266133-4.2496 18.8032-16.938667 39.1552-38.459734 60.672-21.5168 21.5168-41.864533 33.442133-60.672 36.923733z"  horiz-adv-x="1024" />

    
    <glyph glyph-name="fuxuankuangweixuan" unicode="&#58972;" d="M904.533333 772.266667H123.733333v-780.8h780.8V772.266667z m-76.8-76.8v-627.2H200.533333V695.466667h627.2z"  horiz-adv-x="1024" />

    
    <glyph glyph-name="gongshi" unicode="&#58973;" d="M814.933333 738.133333v-75.707733H302.225067l265.8304-264.4608v-53.5296l-265.8304-264.4608H814.933333V4.266667H210.372267L183.466667 68.885333 487.3472 371.2 183.466667 673.514667 210.372267 738.133333z"  horiz-adv-x="1024" />

    
    <glyph glyph-name="fuxuankuang" unicode="&#58974;" d="M737.8048 542.0544l54.306133-54.306133-341.448533-341.448534-208.413867 208.413867 54.306134 54.306133 154.107733-154.107733z"  horiz-adv-x="1024" />

    
    <glyph glyph-name="fuzhi" unicode="&#58975;" d="M695.466667 772.266667c40.059733 0 72.533333-32.4736 72.533333-72.533334v-25.6h29.866667c39.594667 0 71.786667-31.7312 72.520533-71.1552L870.4 601.6v-520.533333c0-39.594667-31.7312-71.786667-71.1552-72.520534L797.866667 8.533333H324.266667c-39.594667 0-71.786667 31.7312-72.520534 71.1552L251.733333 81.066667v25.6h-29.866666c-39.594667 0-71.786667 31.7312-72.520534 71.1552L149.333333 179.2V699.733333c0 40.059733 32.4736 72.533333 72.533334 72.533334z m98.133333-174.933334h-25.6v-418.133333c0-39.594667-31.7312-71.786667-71.1552-72.520533L695.466667 106.666667H328.533333v-21.333334h465.066667V597.333333z m-102.4 98.133334H226.133333v-512h465.066667V695.466667z m-108.8-273.066667a38.4 38.4 0 0 0 1.1264-76.782933l-1.130667-0.017067H332.8a38.4 38.4 0 0 0-1.130667 76.782933L332.8 422.4h249.6z m0 157.866667a38.4 38.4 0 0 0 1.1264-76.782934L582.4 503.466667H332.8a38.4 38.4 0 0 0-1.130667 76.782933L332.8 580.266667h249.6z"  horiz-adv-x="1024" />

    
    <glyph glyph-name="geshi" unicode="&#58976;" d="M388.266667 503.466667h238.933333v-251.733334H388.266667zM896 768v-768H128V768h768zM196.266667 68.266667h157.653333v149.333333H196.266667v-149.333333z m396.586666 149.333333h-170.666666v-149.333333h170.666666v149.333333z m234.88 0h-166.613333v-149.333333H827.733333v149.333333z m0 68.266667v170.666666h-166.613333v-170.666666H827.733333z m-631.466666 0h157.653333v170.666666H196.266667v-170.666666z m396.586666 170.666666h-170.666666v-170.666666h170.666666v170.666666zM827.733333 524.8V699.733333h-166.613333v-174.933333H827.733333zM353.92 699.733333H196.266667v-174.933333h157.653333V699.733333z m238.933333 0h-170.666666v-174.933333h170.666666V699.733333z"  horiz-adv-x="1024" />

    
    <glyph glyph-name="hebingdanyuange" unicode="&#58977;" d="M460.373333 776.430933v-191.389866h-68.266666V708.164267H190.242133v-290.026667h137.429334V501.0688L484.548267 384l-156.8768-117.0688v82.939733h-137.429334v-291.8656H392.106667v132.893867h68.266666v-201.1648H121.984V776.430933H460.373333z m444.061867 0v-786.696533h-338.397867v201.1648h68.266667v-132.893867h201.8688v291.8656h-137.429333v-82.939733L541.866667 384l156.8768 117.0688V418.133333h137.429333V708.164267h-201.864533v-123.1232h-68.266667V776.430933h338.389333z"  horiz-adv-x="1024" />

    
    <glyph glyph-name="jiacu" unicode="&#58978;" d="M558.933333 772.266667c115.831467 0 209.066667-96.8192 209.066667-215.466667 0-55.210667-20.1856-105.6896-53.444267-143.893333C798.0928 381.802667 857.6 301.316267 857.6 206.933333c0-113.373867-85.8624-206.6944-196.1088-218.478933-3.5072-1.041067-7.202133-1.6512-11.0208-1.7536l-1.194667-0.017067h-422.4v785.066667h317.512534l13.738666 0.516267H558.933333z m102.9248-433.066667h-349.653333v-267.182933h319.018667c1.783467 0.2816 3.601067 0.448 5.448533 0.4992l1.194667 0.017066c74.2272 0 134.4 60.1728 134.4 134.4 0 66.039467-47.6288 120.951467-110.408534 132.266667z m-102.3488 347.729067l-12.706133-0.482134-0.226133-0.008533-0.183467-0.004267-0.5632-0.008533-0.221867-0.008533H312.209067V424.533333h233.365333a42.568533 42.568533 0 0 0 12.164267 2.116267L558.933333 426.666667c67.968 0 123.733333 57.911467 123.733334 130.133333 0 71.5008-54.656 128.9728-121.698134 130.116267l-1.4592 0.0128z"  horiz-adv-x="1024" />

    
    <glyph glyph-name="hanshu" unicode="&#58979;" d="M608.968533 652.373333c0-10.167467-3.370667-18.9056-10.103466-26.120533-6.741333-7.2192-15.210667-11.080533-25.416534-11.080533-10.410667 0-18.069333 3.153067-22.762666 9.557333-4.693333 6.4-9.493333 16.768-14.186667 31.095467-1.736533 5.3888-3.780267 9.655467-6.634667 12.808533-2.756267 3.0464-6.741333 4.573867-11.946666 4.573867-6.122667 0-10.816-2.542933-14.08-7.624534-3.268267-5.0816-6.024533-11.7888-8.375467-19.921066l-42.9696-139.844267h59.712l-10.308267-32.5248H442.282667l-61.853867-201.4336c-16.3328-52.544-31.133867-93.704533-44.4032-123.7888-13.269333-30.08-31.8464-55.8976-55.8336-77.546667-23.9872-21.6448-54.301867-32.418133-91.050667-32.418133-26.231467 0-46.647467 5.691733-60.936533 17.173333-14.293333 11.485867-21.538133 24.392533-21.538133 38.724267 0 10.871467 3.776 20.3264 11.332266 28.458667 7.6544 8.2304 17.450667 12.194133 29.495467 12.194133 14.395733 0 23.9872-3.7632 28.48-11.485867s7.351467-17.685333 8.4736-29.981866c1.429333-16.055467 8.366933-24.085333 20.616533-24.085334 12.1472 0 22.050133 6.7072 29.909334 19.921067 7.8592 13.4144 15.7184 33.8432 23.8848 61.384533l99.2128 322.478934H295.3984l9.902933 32.5248H367.872l6.737067 22.660266c9.186133 32.017067 19.498667 60.066133 30.621866 84.053334 11.127467 23.982933 27.6608 45.226667 49.608534 63.9232C476.782933 694.749867 504.1408 704 537.109333 704c12.352 0 24.0896-2.133333 35.217067-6.199467 11.1232-4.066133 20.0064-9.9584 26.641067-17.685333 6.737067-7.620267 10.001067-16.9728 10.001066-27.746133zM874.666667 467.498667c0-15.04-2.141867-29.674667-6.429867-43.4944h-34.090667c4.693333 16.256 7.1424 30.997333 7.1424 44.206933 0 3.050667-0.917333 6.404267-2.756266 9.856-1.834667 3.456-5.307733 5.290667-10.513067 5.290667-3.776 0-7.04-1.117867-9.595733-3.153067-2.653867-2.133333-9.083733-8.533333-19.5968-19.511467l-66.146134-69.316266 29.909334-93.806934c3.268267-10.1632 6.634667-18.5984 9.898666-25.408 3.268267-6.7072 7.453867-10.0608 12.458667-10.0608 8.366933 0 15.7184 6.4 22.353067 19.106134 6.634667 12.808533 11.328 24.0896 14.186666 33.9456h31.9488c-7.146667-25.710933-16.3328-46.749867-27.7632-63.010134-11.434667-16.260267-23.581867-28.151467-36.6464-35.5712-13.064533-7.424-25.416533-11.178667-36.949333-11.178666-18.781867 0-32.968533 6.4-42.769067 19.306666-9.800533 12.910933-18.577067 30.997333-26.129066 54.6816l-13.678934 44.411734-77.883733-82.423467c-22.762667-23.8848-41.745067-35.776-56.853333-35.776-20.821333 0-31.232 13.824-31.232 41.467733 0 19.613867 4.078933 39.125333 12.450133 58.845867h38.378667c-8.674133-24.597333-13.166933-40.247467-13.166934-47.159467 0-7.317333 2.244267-10.973867 6.741334-10.973866 3.771733 0 10.304 4.5696 19.592533 13.824l91.050667 96.2432-17.450667 55.185066c-3.473067 11.281067-6.434133 19.716267-8.4736 25.002667-2.146133 5.282133-4.8 9.553067-8.064 12.906667-3.165867 3.2512-7.249067 4.9792-11.946667 4.9792-13.572267 0-24.904533-17.480533-34.090666-52.4416h-32.661334c7.6544 24.797867 16.226133 45.329067 26.129067 61.794133 9.800533 16.362667 20.923733 28.962133 33.275733 37.704533 12.352 8.64 25.514667 13.111467 39.5008 13.111467 18.474667 0 33.378133-6.609067 44.608-19.716267 11.229867-13.111467 20.416-31.202133 27.562667-54.272l5.713067-18.090666 54.711466 58.8416c21.333333 22.1568 40.5248 33.237333 57.570134 33.237333 16.840533 0 27.6608-5.3888 32.456533-16.264533 4.8-10.973867 7.249067-21.7472 7.249067-32.315734z"  horiz-adv-x="1024" />

    
    <glyph glyph-name="jianxiaoxiaoshuweishu" unicode="&#58980;" d="M469.333333 216.418133V145.066667h277.333334v-68.266667h-277.333334v-69.448533l-132.266666 104.533333 132.266666 104.533333zM593.066667 780.8c75.4048 0 136.533333-61.128533 136.533333-136.533333v-238.933334c0-75.4048-61.128533-136.533333-136.533333-136.533333-75.4048 0-136.533333 61.128533-136.533334 136.533333V644.266667c0 75.4048 61.128533 136.533333 136.533334 136.533333z m-264.533334-401.066667c28.2752 0 51.2-22.9248 51.2-51.2s-22.9248-51.2-51.2-51.2-51.2 22.9248-51.2 51.2 22.9248 51.2 51.2 51.2z m264.533334 332.8c-37.704533 0-68.266667-30.562133-68.266667-68.266666v-238.933334c0-37.704533 30.562133-68.266667 68.266667-68.266666s68.266667 30.562133 68.266666 68.266666V644.266667c0 37.704533-30.562133 68.266667-68.266666 68.266666z"  horiz-adv-x="1024" />

    
    <glyph glyph-name="juzhongduiqi" unicode="&#58981;" d="M642.133333 146.666667v-85.333334H162.133333v85.333334h480z m221.866667 186.666666v-85.333333H170.666667v85.333333h693.333333z m-221.866667 186.666667v-85.333333H162.133333v85.333333h480z m221.866667 186.666667v-85.333334H170.666667v85.333334h693.333333z"  horiz-adv-x="1024" />

    
    <glyph glyph-name="jianqie" unicode="&#58982;" d="M706.9952 768.145067a38.4 38.4 0 0 0 57.770667-50.589867l-208.302934-245.512533 139.328-164.219734a165.649067 165.649067 0 0 0 69.461334 16.4224L768 324.266667c91.904 0 166.4-74.496 166.4-166.4s-74.496-166.4-166.4-166.4-166.4 74.496-166.4 166.4a165.674667 165.674667 0 0 0 34.555733 101.5296l-130.052266 153.288533-128.354134-151.291733a165.661867 165.661867 0 0 0 36.096-100.778667L413.866667 157.866667c0-91.904-74.496-166.4-166.4-166.4s-166.4 74.496-166.4 166.4 74.496 166.4 166.4 166.4c24.96 0 48.64-5.495467 69.888-15.3472l138.3936 163.118933-207.573334 244.6592a38.4 38.4 0 0 0 57.770667 50.5856l0.789333-0.896 199.3728-234.990933 200.098134 235.848533zM247.466667 247.466667c-49.4848 0-89.6-40.1152-89.6-89.6s40.1152-89.6 89.6-89.6 89.6 40.1152 89.6 89.6-40.1152 89.6-89.6 89.6z m520.533333 0c-49.4848 0-89.6-40.1152-89.6-89.6s40.1152-89.6 89.6-89.6 89.6 40.1152 89.6 89.6-40.1152 89.6-89.6 89.6z"  horiz-adv-x="1024" />

    
    <glyph glyph-name="jiangxu" unicode="&#58983;" d="M755.2 772.266667v-580.266667h114.453333L712.533333-8.533333l-157.866666 200.533333h115.2V772.266667h85.333333z m-301.085867-456.533334v-41.1264l-188.023466-230.3872H465.066667V0H196.266667v40.682667l188.48 230.826666H209.9584V315.733333h244.155733zM368.866133 772.266667L490.666667 456.533333h-55.765334l-29.000533 79.1552H272.4992L243.502933 456.533333H187.733333l121.796267 315.733334h59.3408zM341.333333 712.533333h-1.792L290.133333 580.266667h102.4L341.333333 712.533333z"  horiz-adv-x="1024" />

    
    <glyph glyph-name="jianxiaosuojin" unicode="&#58984;" d="M878.400797 160.661776a38.240664 38.240664 0 0 0 1.125975-76.464332l-1.125975-0.016996H152.962656a38.240664 38.240664 0 0 0-1.125976 76.468581l1.125976 0.016996h725.438141zM387.773079 500.464066A21.244813 21.244813 0 0 0 390.904564 489.361527v-202.38234a21.244813 21.244813 0 0 0-31.45507-18.631702L185.084813 363.915154a21.244813 21.244813 0 0 0-0.888033 36.745029l174.360432 106.818921a21.244813 21.244813 0 0 0 29.215867-7.019287z m490.627718-76.362356a38.240664 38.240664 0 0 0 1.125975-76.464332l-1.125975-0.016996h-366.294573a38.240664 38.240664 0 0 0-1.125975 76.468581l1.125975 0.016996h366.294573z m0 267.952331a38.240664 38.240664 0 0 0 1.125975-76.464331l-1.125975-0.016996H152.962656a38.240664 38.240664 0 0 0-1.125976 76.464332L152.962656 692.049793h725.438141z"  horiz-adv-x="1024" />

    
    <glyph glyph-name="paixu" unicode="&#58985;" d="M900.266667 776.533333v-776.533333H123.733333V776.533333h776.533334z m-68.266667-68.266666H192v-640h640V708.266667z m-139.0208-72.533334l-0.004267-380.0192H772.266667l-112.797867-145.066666-113.335467 145.066666h78.574934V635.733333h68.266666z m-319.377067 0L486.4 490.666667H407.108267v-378.005334h-68.266667V490.666667H260.266667l113.335466 145.066666z"  horiz-adv-x="1024" />

    
    <glyph glyph-name="moban" unicode="&#58986;" d="M486.4 345.6v-354.133333H115.2v354.133333h371.2z m418.133333-290.133333v-64h-354.133333v64h354.133333zM418.133333 294.4H183.466667v-234.666667h234.666666v234.666667z m486.4-93.866667v-68.266666h-354.133333v68.266666h354.133333z m0 145.066667v-64h-354.133333v64h354.133333z m4.266667 426.666667v-371.2H115.2V772.266667h793.6z m-68.266667-68.266667H183.466667v-234.666667h657.066666V704z"  horiz-adv-x="1024" />

    
    <glyph glyph-name="luoji" unicode="&#58987;" d="M854.083983 789.775934a33.991701 33.991701 0 0 0 33.991702-33.991702v-735.070539a33.991701 33.991701 0 0 0-33.991702-33.991701H195.656232a33.991701 33.991701 0 0 0-33.991701 33.991701l-0.004249 98.219021-32.768 32.869975a33.991701 33.991701 0 0 0-0.650091 47.324946l0.82005 0.837045 32.598041 32.253876v99.803884l-32.598041 32.249626a33.991701 33.991701 0 0 0-0.824299 47.490656l0.824299 0.841295 32.598041 32.253875v96.791369l-32.598041 32.249627a33.991701 33.991701 0 0 0-0.824299 47.490656l0.824299 0.841294 32.598041 32.253876V755.784232a33.991701 33.991701 0 0 0 32.937959 33.974706l1.057991 0.016996z m-33.991701-67.983403H229.639436v-81.495104a33.991701 33.991701 0 0 0-9.17776-23.241825l-0.905029-0.926274-18.262041-18.06234 18.262041-18.06659a33.991701 33.991701 0 0 0 10.061544-22.872166l0.025494-1.291684v-125.165942a33.991701 33.991701 0 0 0-10.087038-24.1681l-18.262041-18.06234 18.262041-18.06234a33.991701 33.991701 0 0 0 10.061544-22.872166l0.025494-1.295934v-128.182705a33.991701 33.991701 0 0 0-10.087038-24.163851l-18.432-18.22805 18.59771-18.661444a33.991701 33.991701 0 0 0 9.891585-22.646971l0.029743-1.35117L229.639436 54.705394H820.092282V721.792531z m-304.157743-463.136929c13.868614 0 25.850689-4.529394 35.30888-13.592432 8.825095-9.058788 13.868614-20.709444 13.868614-34.947718 0-14.234025-5.043519-26.534772-14.501709-35.59356-9.458191-9.063037-20.80717-13.592432-34.675785-13.592431-13.872863 0-25.221842 5.179485-34.675784 14.238273-9.458191 9.058788-13.872863 20.709444-13.872863 34.947718s4.414672 25.888929 13.872863 34.947718c9.453942 9.063037 20.802921 13.592432 34.671535 13.592432z m7.354955 361.161825c41.610091 0 75.533809-10.809361 101.142307-33.694273C650.03605 563.871336 662.838174 533.359535 662.838174 494.579253c0-31.78649-8.323718-57.853876-23.683718-78.197909-5.761593-6.356448-24.325311-23.522257-55.053809-50.222738-11.518938-9.534672-19.842656-20.344033-25.604249-31.782241-6.398938-12.717145-9.602656-26.067386-9.602655-41.325411V284.149378h-73.613278v8.901576c0 24.155353 3.841062 45.13673 12.802124 62.30254 8.323718 17.165809 33.286373 43.862041 74.896465 80.734539l7.682124 8.901577c11.518938 13.987585 17.280531 29.24561 17.280532 45.13673 0 20.981378-6.398938 37.509842-17.922125 49.585394-12.160531 12.08405-29.445311 17.803154-51.208498 17.803154-28.170622 0-48.013278-8.264232-60.173809-26.063137-10.881593-14.624929-16.001593-35.606307-16.001593-62.302539H369.659751c0 47.044515 13.443718 83.917012 41.610091 110.617493C438.790373 606.467187 475.922058 619.817427 523.289494 619.817427z"  horiz-adv-x="1024" />

    
    <glyph glyph-name="mingchengguanliqi" unicode="&#58988;" d="M860.2112 767.108267a34.133333 34.133333 0 0 0 34.116267-33.066667l0.017066-1.066667v-312.7552a34.133333 34.133333 0 0 0-9.1008-23.210666l-0.896-0.925867-390.557866-390.557867a34.133333 34.133333 0 0 0-47.406934-0.832l-0.861866 0.832-308.177067 308.177067a34.133333 34.133333 0 0 0-1.224533 46.976l0.810666 0.8704 381.5808 395.136a34.133333 34.133333 0 0 0 23.236267 10.397867l1.3184 0.0256h317.1456zM264.554667 395.4432L209.3312 338.261333l260.322133-260.322133 56.2048 56.2048-261.303466 261.303467z m561.5232 303.402667h-268.522667l-245.572267-254.293334 262.144-262.144 251.950934 251.950934V698.845867zM684.8 601.6c27.0976 0 49.066667-21.969067 49.066667-49.066667S711.8976 503.466667 684.8 503.466667 635.733333 525.435733 635.733333 552.533333 657.7024 601.6 684.8 601.6z"  horiz-adv-x="1024" />

    
    <glyph glyph-name="minitu" unicode="&#58989;" d="M939.144533 73.557333v-68.266666H102.946133v68.266666h836.1984z m-67.925333 639.010134l53.474133-42.432-320.149333-403.4432-259.392 180.910933-183.7568-234.965333-53.7728 42.056533 223.573333 285.870933 259.7632-181.166933 280.260267 353.169067z"  horiz-adv-x="1024" />

    
    <glyph glyph-name="qingchu" unicode="&#58990;" d="M136.593067 711.223467l295.1168-295.1168v-418.338134l164.983466 86.126934v332.2112l295.112534 295.1168-28.672 47.419733H180.501333zM679.893333 266.9056l162.734934-162.7392-48.2688-48.273067-162.743467 162.743467zM794.359467 266.9056l-162.743467-162.7392L679.893333 55.893333l162.7392 162.743467z"  horiz-adv-x="1024" />

    
    <glyph glyph-name="qianfenfengeyangshi" unicode="&#58991;" d="M384 128c76.9792 20.113067 139.6352 60.343467 186.180267 118.856533C616.7296 309.034667 640 380.343467 640 460.8c0 53.0304-12.5312 95.086933-35.805867 128-25.0624 34.743467-59.076267 51.2-98.461866 51.2-35.8016 0-62.656-9.143467-82.346667-31.086933C400.110933 588.8 389.371733 561.3696 389.371733 526.634667c0-31.086933 10.7392-58.517333 32.221867-80.4608 21.482667-21.9392 46.549333-32.913067 76.9792-32.913067 17.902933 0 30.434133 3.656533 39.381333 7.313067 0-43.882667-12.526933-84.113067-39.381333-122.513067-28.642133-36.5696-68.027733-64-114.5728-80.456533v-89.6z"  horiz-adv-x="1024" />

    
    <glyph glyph-name="qingchuyangshi" unicode="&#58992;" d="M620.893867 775.236267l1.1136-0.1792a33.979733 33.979733 0 0 0 19.165866-9.710934l125.738667-126.626133 96.0128-96.0128a33.975467 33.975467 0 0 0 9.403733-17.792 34.112 34.112 0 0 0-9.152-31.2448l-283.392-285.4016a34.056533 34.056533 0 0 0-10.026666-7.005867l-163.925334-163.921066-0.699733-0.6656h460.5952a25.6 25.6 0 0 0 0.955733-51.182934l-0.955733-0.021333h-699.733333a25.6 25.6 0 0 0-0.96 51.182933l0.96 0.017067h192.256a34.760533 34.760533 0 0 0-0.6912 0.669867l-222.8992 222.8992a34.133333 34.133333 0 0 0 0 48.273066l457.092266 457.088a34.082133 34.082133 0 0 0 29.141334 9.634134zM319.829333 421.282133L182.933333 284.373333l198.762667-198.762666 136.192 136.200533-198.058667 199.466667z"  horiz-adv-x="1024" />

    
    <glyph glyph-name="quxiaochuanggedongjie" unicode="&#58993;" d="M896 768v-768H128V768h768z m-418.133333-418.133333H196.266667v-281.6h281.6v281.6z m206.702933-190.596267L595.264 68.266667h178.6112l-89.3056 91.003733zM827.733333 305.160533l-95.342933-97.156266L827.733333 110.848v194.312533z m-281.6-4.821333v-184.669867l90.6112 92.334934L546.133333 300.3392zM775.957333 349.866667h-182.775466l91.387733-93.128534L775.957333 349.866667zM477.866667 699.733333H196.266667v-281.6h281.6V699.733333z m349.866666 0h-281.6v-281.6h281.6V699.733333z"  horiz-adv-x="1024" />

    
    <glyph glyph-name="shaixuan" unicode="&#58994;" d="M136.593067 711.223467l295.1168-295.1168v-418.338134l164.983466 86.126934v332.2112l295.112534 295.1168-28.672 47.419733H180.501333z"  horiz-adv-x="1024" />

    
    <glyph glyph-name="quxiaozuhe" unicode="&#58995;" d="M861.866667 763.733333v-746.666666H392.533333V763.733333h469.333334z m-68.266667-520.533333h-332.8v-157.866667h332.8v157.866667zM283.784533 490.461867l48.2688-48.273067-53.384533-53.380267 55.232-55.232-48.273067-48.2688L230.4 340.535467l-55.227733-55.227734-48.273067 48.2688 55.227733 55.232-53.380266 53.380267 48.2688 48.273067L230.4 437.0816l53.384533 53.380267zM793.6 469.333333h-332.8v-157.866666h332.8v157.866666z m0 226.133334h-332.8v-157.866667h332.8V695.466667z"  horiz-adv-x="1024" />

    
    <glyph glyph-name="shengxu" unicode="&#58996;" d="M712.533333 780.8l157.12-200.533333H755.2v-597.333334h-85.333333V580.266667h-115.2l157.866666 200.533333zM368.8704 311.466667L490.666667-4.266667h-55.765334l-29.000533 79.1552H272.4992L243.502933-4.266667H187.733333l121.796267 315.733334h59.3408zM341.333333 251.733333h-1.792L290.133333 119.466667h102.4l-51.2 132.266666z m112.7808 507.733334v-41.1264L266.090667 487.953067H465.066667V443.733333H196.266667v40.682667l188.48 230.826667H209.9584V759.466667h244.155733z"  horiz-adv-x="1024" />

    
    <glyph glyph-name="shanchu" unicode="&#58997;" d="M396.8 192a34.133333 34.133333 0 0 1-34.133333-34.133333v-162.133334a34.133333 34.133333 0 0 1 34.133333-34.133333h473.6a34.133333 34.133333 0 0 1 34.133333 34.133333v162.133334a34.133333 34.133333 0 0 1-34.133333 34.133333z m34.133333-68.266667h405.333334v-93.866666h-405.333334v93.866666zM145.066667 499.2a34.133333 34.133333 0 0 1-34.133334-34.133333v-162.133334a34.133333 34.133333 0 0 1 34.133334-34.133333h473.6a34.133333 34.133333 0 0 1 34.133333 34.133333v162.133334a34.133333 34.133333 0 0 1-34.133333 34.133333z m34.133333-68.266667h405.333333v-93.866666H179.2v93.866666z m217.6 349.866667a34.133333 34.133333 0 0 1-34.133333-34.133333v-162.133334a34.133333 34.133333 0 0 1 34.133333-34.133333h473.6a34.133333 34.133333 0 0 1 34.133333 34.133333V746.666667a34.133333 34.133333 0 0 1-34.133333 34.133333z m34.133333-68.266667h405.333334v-93.866666h-405.333334V712.533333zM721.437867 503.9488l189.8368-189.8368-48.273067-48.273067-189.832533 189.8368zM863.0016 503.9488l-189.832533-189.8368 48.2688-48.273067L911.274667 455.68z"  horiz-adv-x="1024" />

    
    <glyph glyph-name="shezhi" unicode="&#58998;" d="M821.632 381.866667c0 43.665067 27.4176 80.6656 65.834667 95.415466a382.890667 382.890667 0 0 1-41.834667 101.085867c-37.666133-16.750933-83.165867-9.92-113.9968 21.000533-30.8352 30.830933-37.6704 76.416-20.919467 113.9968A384.597333 384.597333 0 0 1 609.553067 755.2c-14.8352-38.417067-51.84-65.834667-95.419734-65.834667-43.665067 0-80.6656 27.4176-95.415466 65.834667a382.890667 382.890667 0 0 1-101.085867-41.834667c16.750933-37.666133 9.92-83.165867-20.9152-113.9968-30.8352-30.8352-76.416-37.6704-114.001067-21.000533A380.322133 380.322133 0 0 1 140.8 477.282133c38.417067-14.830933 65.834667-51.831467 65.834667-95.415466 0-43.665067-27.4176-80.6656-65.834667-95.415467a382.890667 382.890667 0 0 1 41.834667-101.085867c37.666133 16.750933 83.165867 9.92 113.9968-21.000533 30.8352-30.830933 37.6704-76.416 20.919466-113.9968A384.597333 384.597333 0 0 1 418.7136 8.533333c14.8352 38.417067 51.84 65.834667 95.419733 65.834667 43.665067 0 80.6656-27.4176 95.415467-65.834667a382.890667 382.890667 0 0 1 101.085867 41.834667c-16.750933 37.666133-9.92 83.165867 20.9152 113.9968 30.8352 30.8352 76.416 37.6704 114.001066 21.000533A380.322133 380.322133 0 0 1 887.466667 286.4512c-38.417067 14.749867-65.834667 51.7504-65.834667 95.415467z m-307.498667-102.498134c-56.584533 0-102.498133 45.9136-102.498133 102.498134s45.9136 102.498133 102.498133 102.498133 102.498133-45.9136 102.498134-102.498133-45.9136-102.498133-102.498134-102.498134z"  horiz-adv-x="1024" />

    
    <glyph glyph-name="qitahanshu" unicode="&#58999;" d="M852.932267 790.826667a34.133333 34.133333 0 0 0 34.133333-34.133334v-738.133333a34.133333 34.133333 0 0 0-34.133333-34.133333H191.752533a34.133333 34.133333 0 0 0-34.133333 34.133333l-0.004267 98.628267-32.904533 33.006933a34.133333 34.133333 0 0 0-0.6528 47.522133l0.823467 0.840534 32.733866 32.388266v100.219734l-32.733866 32.384a34.133333 34.133333 0 0 0-0.827734 47.688533l0.827734 0.8448 32.733866 32.388267v97.194666l-32.733866 32.384a34.133333 34.133333 0 0 0-0.827734 47.684267l0.827734 0.849067 32.733866 32.388266V756.693333a34.133333 34.133333 0 0 0 33.0752 34.116267l1.0624 0.017067z m-34.1376-68.266667H225.8816v-81.838933a34.133333 34.133333 0 0 0-9.216-23.3344l-0.9088-0.930134-18.338133-18.1376 18.338133-18.141866a34.133333 34.133333 0 0 0 10.103467-22.967467l0.0256-1.297067v-125.687466a34.133333 34.133333 0 0 0-10.129067-24.2688l-18.338133-18.1376 18.338133-18.1376a34.133333 34.133333 0 0 0 10.103467-22.967467l0.0256-1.301333v-128.7168a34.133333 34.133333 0 0 0-10.129067-24.264534l-18.5088-18.304 18.6752-18.7392a34.133333 34.133333 0 0 0 9.9328-22.741333l0.029867-1.3568-0.004267-78.596267h592.913067v669.866667zM352 435.2c27.0976 0 49.066667-21.969067 49.066667-49.066667S379.0976 337.066667 352 337.066667 302.933333 359.035733 302.933333 386.133333 324.9024 435.2 352 435.2z m162.133333 0c27.0976 0 49.066667-21.969067 49.066667-49.066667s-21.969067-49.066667-49.066667-49.066666-49.066667 21.969067-49.066666 49.066666 21.969067 49.066667 49.066666 49.066667z m162.133334 0c27.0976 0 49.066667-21.969067 49.066666-49.066667s-21.969067-49.066667-49.066666-49.066666-49.066667 21.969067-49.066667 49.066666 21.969067 49.066667 49.066667 49.066667z"  horiz-adv-x="1024" />

    
    <glyph glyph-name="shujuyanzheng" unicode="&#59000;" d="M832 226.133333c68.334933 0 123.733333-55.3984 123.733333-123.733333s-55.3984-123.733333-123.733333-123.733333-123.733333 55.3984-123.733333 123.733333 55.3984 123.733333 123.733333 123.733333z m-65.6512-92.855466A72.256 72.256 0 0 1 759.466667 102.4c0-40.059733 32.4736-72.533333 72.533333-72.533333 11.042133 0 21.508267 2.466133 30.877867 6.882133zM832 174.933333c-10.2784 0-20.053333-2.1376-28.9152-5.9904l95.458133-95.453866A72.290133 72.290133 0 0 1 904.533333 102.4c0 40.059733-32.4736 72.533333-72.533333 72.533333z m8.533333 187.733334v-119.466667h-68.266666v51.2H174.933333v-145.066667h512v-68.266666H106.666667v281.6h733.866666z m97.181867 266.0992l36.369067-36.032-167.2448-168.810667-108.373334 108.373333 36.202667 36.206934 71.995733-72 131.050667 132.266666zM840.533333 763.733333v-119.466666h-68.266666V695.466667H174.933333v-145.066667h512v-68.266667H106.666667V763.733333h733.866666z"  horiz-adv-x="1024" />

    
    <glyph glyph-name="shijianheriqi" unicode="&#59001;" d="M854.083983 789.775934a33.991701 33.991701 0 0 0 33.991702-33.991702v-735.070539a33.991701 33.991701 0 0 0-33.991702-33.991701H195.656232a33.991701 33.991701 0 0 0-33.991701 33.991701l-0.004249 98.219021-32.768 32.869975a33.991701 33.991701 0 0 0-0.650091 47.324946l0.82005 0.837045 32.598041 32.253876v99.803884l-32.598041 32.249626a33.991701 33.991701 0 0 0-0.824299 47.490656l0.824299 0.841295 32.598041 32.253875v96.791369l-32.598041 32.249627a33.991701 33.991701 0 0 0-0.824299 47.490656l0.824299 0.841294 32.598041 32.253876V755.784232a33.991701 33.991701 0 0 0 32.937959 33.974706l1.057991 0.016996z m-33.991701-67.983403H229.639436v-81.495104a33.991701 33.991701 0 0 0-9.17776-23.241825l-0.905029-0.926274-18.262041-18.06234 18.262041-18.06659a33.991701 33.991701 0 0 0 10.061544-22.872166l0.025494-1.291684v-125.165942a33.991701 33.991701 0 0 0-10.087038-24.1681l-18.262041-18.06234 18.262041-18.06234a33.991701 33.991701 0 0 0 10.061544-22.872166l0.025494-1.295934v-128.182705a33.991701 33.991701 0 0 0-10.087038-24.163851l-18.432-18.22805 18.59771-18.661444a33.991701 33.991701 0 0 0 9.891585-22.646971l0.029743-1.35117L229.639436 54.705394H820.092282V721.792531zM533.244813 628.315353c132.584631 0 240.06639-107.481759 240.06639-240.06639S665.829444 148.182573 533.244813 148.182573 293.178423 255.664332 293.178423 388.248963 400.660183 628.315353 533.244813 628.315353z m0-67.983403C438.204017 560.33195 361.161826 483.289759 361.161826 388.248963s77.042191-172.082988 172.082987-172.082988 172.082988 77.042191 172.082988 172.082988S628.28561 560.33195 533.244813 560.33195z m33.991702-52.041294v-106.228316h65.914157v-67.983402H499.253112V508.290656h67.983403z"  horiz-adv-x="1024" />

    
    <glyph glyph-name="tianchong" unicode="&#59002;" d="M896 768v-768H128V768h768z m-68.266667-68.266667H196.266667v-631.466666h631.466666V699.733333z m-230.4-91.528533v-283.925333h98.5088L507.733333 136.170667l-188.1088 188.1088h95.645867V608.2048H597.333333z"  horiz-adv-x="1024" />

    
    <glyph glyph-name="shuangxiahuaxian" unicode="&#59003;" d="M759.466667 37.922133v-68.266666H256v68.266666h503.466667z m0 99.797334v-68.266667H256v68.266667h503.466667zM306.013867 795.618133c150.5152 7.138133 250.487467-2.478933 305.058133-32.384 99.741867-54.656 150.229333-134.788267 150.229333-278.698666 0-77.128533-22.434133-142.792533-62.634666-194.845867-32.9088-42.619733-76.373333-73.9584-120.832-90.897067-49.105067-18.705067-134.634667-23.505067-260.642134-16.256l-11.810133 0.708267a42.666667 42.666667 0 0 0-40.017067 42.5856V753.002667a42.666667 42.666667 0 0 0 40.648534 42.615466z m264.0512-107.221333c-31.650133 17.348267-102.890667 26.0352-210.304 23.722667l-9.0624-0.213334V266.282667l8.384-0.349867c92.906667-3.6608 156.245333 0.823467 187.2896 12.1984l1.079466 0.405333c30.135467 11.477333 60.637867 33.472 83.677867 63.3088 28.672 37.128533 44.842667 84.450133 44.842667 142.690134 0 61.525333-11.204267 106.112-31.906134 138.965333-16.7552 26.589867-39.8592 46.1952-74.001066 64.896z"  horiz-adv-x="1024" />

    
    <glyph glyph-name="suofang" unicode="&#59004;" d="M173.4144 319.488a34.133333 34.133333 0 0 0 34.120533-33.066667l0.0128-1.066666v-153.220267l165.034667 161.092267a34.133333 34.133333 0 0 0 48.529067-48l-0.8448-0.853334-166.2592-162.282666h156.5568a34.133333 34.133333 0 0 0 34.116266-33.070934l0.017067-1.066666a34.133333 34.133333 0 0 0-33.070933-34.112l-1.066667-0.017067h-237.141333a34.133333 34.133333 0 0 0-34.120534 33.066667l-0.017066 1.066666v237.397334a34.133333 34.133333 0 0 0 34.133333 34.133333z m678.1312 0.512a34.133333 34.133333 0 0 0 34.133333-34.133333v-237.397334l-0.017066-1.066666a34.133333 34.133333 0 0 0-34.116267-33.066667H614.4l-1.066667 0.0128a34.133333 34.133333 0 0 0-33.066666 34.120533l0.017066 1.0624a34.133333 34.133333 0 0 0 34.116267 33.066667l203.012267 0.004267V285.866667l0.017066 1.066666a34.133333 34.133333 0 0 0 34.116267 33.066667zM410.564267 755.2l1.0624-0.017067a34.133333 34.133333 0 0 0 33.066666-34.116266l-0.0128-1.066667A34.133333 34.133333 0 0 0 410.564267 686.933333H207.547733v-203.264l-0.0128-1.066666a34.133333 34.133333 0 0 0-68.253866 1.066666V721.066667l0.017066 1.066666A34.133333 34.133333 0 0 0 173.4144 755.2h237.149867z m440.981333 0a34.133333 34.133333 0 0 0 34.116267-33.066667l0.017066-1.066666v-237.397334a34.133333 34.133333 0 0 0-68.2496-1.066666l-0.017066 1.066666V637.691733l-164.4544-160.529066a34.133333 34.133333 0 0 0-48.5248 48l0.840533 0.853333L770.1248 686.933333H614.4a34.133333 34.133333 0 0 0-34.116267 33.066667L580.266667 721.066667a34.133333 34.133333 0 0 0 33.066666 34.116266L614.4 755.2h237.1456z"  horiz-adv-x="1024" />

    
    <glyph glyph-name="taoyongbiaogeyangshi" unicode="&#59005;" d="M908.8 780.8v-306.3296l-35.387733 35.387733L862.0928 520.533333 840.533333 499.460267V712.533333h-128v-290.133333h49.181867L520.533333 186.602667l-0.004266-44.731734L430.954667 64H644.266667v19.5968l68.266666 68.266667V64h128v215.867733l68.266667 68.266667V-4.266667H123.733333V780.8h785.066667zM315.733333 354.133333H192v-290.133333h123.733333v290.133333z m328.533334 91.579734l-259.204267-225.352534-1.0624 1.220267v-107.946667l260.266667 226.269867v105.809067z m0 204.718933l-259.204267-225.352533-1.0624 1.220266v-116.398933l260.266667 226.269867v114.261333zM315.733333 712.533333H192v-290.133333h123.733333V712.533333z m295.914667 0H384v-197.917866L611.648 712.533333zM897.194667 534.344533l-35.524267 33.5104L486.4 200.96v-168.3328h155.178667l378.666666 378.666667-123.050666 123.050666z m-35.0464-61.4912l61.550933-61.550933-310.4-310.4H554.666667v71.338667l307.4816 300.612266z"  horiz-adv-x="1024" />

    
    <glyph glyph-name="suofangdaoxuandingquyu" unicode="&#59006;" d="M904.533333 768v-772.266667H132.266667V768h772.266666z m-76.8-76.8H209.066667v-618.666667h618.666666V691.2z m-324.266666-115.2c101.3248 0 183.466667-82.141867 183.466666-183.466667a182.621867 182.621867 0 0 0-32.618666-104.456533l78.549333-78.557867-48.2688-48.273066-78.912 78.912A182.613333 182.613333 0 0 0 503.466667 209.066667c-101.3248 0-183.466667 82.141867-183.466667 183.466666s82.141867 183.466667 183.466667 183.466667z m0-76.8c-58.909867 0-106.666667-47.7568-106.666667-106.666667s47.7568-106.666667 106.666667-106.666666 106.666667 47.7568 106.666666 106.666666-47.7568 106.666667-106.666666 106.666667z"  horiz-adv-x="1024" />

    
    <glyph glyph-name="tiaojiangeshi" unicode="&#59007;" d="M908.8 780.8v-785.066667H123.733333V780.8h785.066667zM315.733333 354.133333H192v-290.133333h123.733333v290.133333z m524.8 0h-128v-290.133333h128v290.133333z m-196.266666-104.686933L430.954667 64H644.266667v185.4464z m0 196.266667l-259.204267-225.352534-1.0624 1.220267v-107.946667l260.266667 226.269867v105.809067z m0 204.718933l-259.204267-225.352533-1.0624 1.220266v-116.398933l260.266667 226.269867v114.261333zM840.533333 712.533333h-128v-290.133333h128V712.533333zM315.733333 712.533333H192v-290.133333h123.733333V712.533333z m295.914667 0H384v-197.917866L611.648 712.533333z"  horiz-adv-x="1024" />

    
    <glyph glyph-name="tiaoxingma" unicode="&#59008;" d="M182.826667 230.4l-0.004267-134.327467h145.066667v-68.266666h-179.2l-1.066667 0.017066a34.133333 34.133333 0 0 0-33.066667 34.116267V230.4h68.266667zM870.4 230.4v-168.4608a34.133333 34.133333 0 0 0-33.066667-34.116267l-1.066666-0.017066h-179.2v68.266666h145.066666V230.4h68.266667zM315.1232 612.125867a34.133333 34.133333 0 0 0 34.116267-33.070934l0.017066-1.066666V183.466667a34.133333 34.133333 0 0 0-68.2496-1.066667l-0.017066 1.066667V577.992533a34.133333 34.133333 0 0 0 34.133333 34.133334z m171.2768 0a34.133333 34.133333 0 0 0 34.116267-33.070934l0.017066-1.066666V183.466667a34.133333 34.133333 0 0 0-68.2496-1.066667L452.266667 183.466667V577.992533a34.133333 34.133333 0 0 0 34.133333 34.133334z m174.933333 0a34.133333 34.133333 0 0 0 34.116267-33.070934l0.017067-1.066666V183.466667a34.133333 34.133333 0 0 0-68.2496-1.066667L627.2 183.466667V577.992533a34.133333 34.133333 0 0 0 34.133333 34.133334z m-333.44 160.298666v-68.266666H182.818133v-134.331734h-68.266666V738.286933a34.133333 34.133333 0 0 0 33.066666 34.120534l1.066667 0.0128h179.2z m508.373334 0l1.066666-0.017066a34.133333 34.133333 0 0 0 33.066667-34.120534v-168.4608h-68.266667V704.157867h-145.066666v68.266666h179.2z"  horiz-adv-x="1024" />

    
    <glyph glyph-name="tupian" unicode="&#59009;" d="M904.533333 759.466667v-780.8H123.733333V759.466667h780.8z m-76.8-76.8H200.533333v-537.3696c22.084267 55.394133 74.606933 121.890133 128 121.890133 70.1952 0 87.1424-57.480533 138.176-57.480533 51.029333 0 62.016 64.1152 96.2048 114.871466 34.184533 50.756267 70.626133 74.88 135.402667 50.756267 38.1952-14.225067 81.335467-93.077333 129.4208-236.552533L827.733333 682.666667zM420.266667 580.266667c50.6624 0 91.733333-41.070933 91.733333-91.733334S470.929067 396.8 420.266667 396.8 328.533333 437.870933 328.533333 488.533333 369.604267 580.266667 420.266667 580.266667z"  horiz-adv-x="1024" />

    
    <glyph glyph-name="xieti" unicode="&#59010;" d="M774.929067 812.373333a34.133333 34.133333 0 0 0 1.066666-68.245333l-1.066666-0.017067H680.064L438.4128 21.333333l106.052267-0.004266a34.133333 34.133333 0 0 0 1.066666-68.2496l-1.066666-0.017067H251.733333a34.133333 34.133333 0 0 0-1.066666 68.2496L251.733333 21.333333h96.704l241.6512 722.773334h-107.8912a34.133333 34.133333 0 0 0-1.066666 68.253866l1.066666 0.017067h292.736z"  horiz-adv-x="1024" />

    
    <glyph glyph-name="shuxuehesanjiaohanshu" unicode="&#59011;" d="M852.932267 790.826667a34.133333 34.133333 0 0 0 34.133333-34.133334v-738.133333a34.133333 34.133333 0 0 0-34.133333-34.133333H191.752533a34.133333 34.133333 0 0 0-34.133333 34.133333l-0.004267 98.628267-32.904533 33.006933a34.133333 34.133333 0 0 0-0.6528 47.522133l0.823467 0.840534 32.733866 32.388266v100.219734l-32.733866 32.384a34.133333 34.133333 0 0 0-0.827734 47.688533l0.827734 0.8448 32.733866 32.388267v97.194666l-32.733866 32.384a34.133333 34.133333 0 0 0-0.827734 47.684267l0.827734 0.849067 32.733866 32.388266V756.693333a34.133333 34.133333 0 0 0 33.0752 34.116267l1.0624 0.017067z m-34.1376-68.266667H225.8816v-81.838933a34.133333 34.133333 0 0 0-9.216-23.3344l-0.9088-0.930134-18.338133-18.1376 18.338133-18.141866a34.133333 34.133333 0 0 0 10.103467-22.967467l0.0256-1.297067v-125.687466a34.133333 34.133333 0 0 0-10.129067-24.2688l-18.338133-18.1376 18.338133-18.1376a34.133333 34.133333 0 0 0 10.103467-22.967467l0.0256-1.301333v-128.7168a34.133333 34.133333 0 0 0-10.129067-24.264534l-18.5088-18.304 18.6752-18.7392a34.133333 34.133333 0 0 0 9.9328-22.741333l0.029867-1.3568-0.004267-78.596267h592.913067v669.866667zM512 640c92.061867 0 157.866667-112.32 157.866667-245.333333S604.061867 149.333333 512 149.333333c-92.061867 0-157.866667 112.32-157.866667 245.333334S419.938133 640 512 640z m87.825067-279.466667H424.174933c8.746667-83.050667 48.4352-142.933333 87.825067-142.933333s79.082667 59.882667 87.825067 142.933333zM512 571.733333c-39.389867 0-79.082667-59.882667-87.825067-142.933333h175.650134C591.0784 511.854933 551.389867 571.733333 512 571.733333z"  horiz-adv-x="1024" />

    
    <glyph glyph-name="wenben" unicode="&#59012;" d="M854.083983 789.775934a33.991701 33.991701 0 0 0 33.991702-33.991702v-735.070539a33.991701 33.991701 0 0 0-33.991702-33.991701H195.656232a33.991701 33.991701 0 0 0-33.991701 33.991701l-0.004249 98.219021-32.768 32.869975a33.991701 33.991701 0 0 0-0.650091 47.324946l0.82005 0.837045 32.598041 32.253876v99.803884l-32.598041 32.249626a33.991701 33.991701 0 0 0-0.824299 47.490656l0.824299 0.841295 32.598041 32.253875v96.791369l-32.598041 32.249627a33.991701 33.991701 0 0 0-0.824299 47.490656l0.824299 0.841294 32.598041 32.253876V755.784232a33.991701 33.991701 0 0 0 32.937959 33.974706l1.057991 0.016996z m-33.991701-67.983403H229.639436v-81.495104a33.991701 33.991701 0 0 0-9.17776-23.241825l-0.905029-0.926274-18.262041-18.06234 18.262041-18.06659a33.991701 33.991701 0 0 0 10.061544-22.872166l0.025494-1.291684v-125.165942a33.991701 33.991701 0 0 0-10.087038-24.1681l-18.262041-18.06234 18.262041-18.06234a33.991701 33.991701 0 0 0 10.061544-22.872166l0.025494-1.295934v-128.182705a33.991701 33.991701 0 0 0-10.087038-24.163851l-18.432-18.22805 18.59771-18.661444a33.991701 33.991701 0 0 0 9.891585-22.646971l0.029743-1.35117L229.639436 54.705394H820.092282V721.792531zM569.360996 611.319502l165.709543-429.145228h-75.873726l-39.455867 107.583734h-181.490191L398.794888 182.174274H322.921162l165.709543 429.145228h80.730291z m-36.753527-76.481328h-2.379419L463.136929 347.883817h135.966805l-66.496265 186.954357z"  horiz-adv-x="1024" />

    
    <glyph glyph-name="youduiqi" unicode="&#59013;" d="M384 146.666667v-85.333334h480v85.333334H384z m-221.866667 186.666666v-85.333333h693.333334v85.333333H162.133333z m221.866667 186.666667v-85.333333h480v85.333333H384z m-221.866667 186.666667v-85.333334h693.333334v85.333334H162.133333z"  horiz-adv-x="1024" />

    
    <glyph glyph-name="xingzhuang" unicode="&#59014;" d="M654.933333 785.066667c147.2768 0 266.666667-119.389867 266.666667-266.666667 0-146.56-118.237867-265.5104-264.533333-266.658133v68.279466l1.147733 0.004267C766.276267 321.774933 853.333333 409.924267 853.333333 518.4c0 109.572267-88.827733 198.4-198.4 198.4S456.533333 627.972267 456.533333 518.4l0.017067-2.133333H388.2752a272.273067 272.273067 0 0 0-0.008533 2.133333C388.266667 665.6768 507.656533 785.066667 654.933333 785.066667zM691.2 550.4H115.2v-576h576V550.4z m-68.266667-68.266667v-439.466666H183.466667V482.133333h439.466666z"  horiz-adv-x="1024" />

    
    <glyph glyph-name="zhongzuo" unicode="&#59015;" d="M645.175467 323.2896c-89.1392 9.732267-179.584 1.979733-271.317334-23.253333-91.741867-25.2416-183.3472-110.122667-274.816-254.651734 0 94.6048 13.354667 170.368 40.064 227.281067 40.064 85.371733 50.939733 130.423467 159.509334 204.330667 72.379733 49.2672 187.904 72.1408 346.56 68.6208V655.7312a21.333333 21.333333 0 0 0 36.1984 15.300267l253.546666-246.301867a21.333333 21.333333 0 0 0-0.567466-31.133867l-253.546667-228.923733a21.333333 21.333333 0 0 0-35.626667 15.837867z"  horiz-adv-x="1024" />

    
    <glyph glyph-name="zengjiaxiaoshuweishu" unicode="&#59016;" d="M776.9088 216.418133l132.266667-104.533333-132.266667-104.533333-0.004267 69.448533H448v68.266667h328.904533v71.351466zM430.933333 780.8c74.6496 0 135.3088-59.912533 136.516267-134.272L567.466667 644.266667v-238.933334c0-75.4048-61.128533-136.533333-136.533334-136.533333-74.6496 0-135.3088 59.912533-136.516266 134.272L294.4 405.333333V644.266667c0 75.4048 61.128533 136.533333 136.533333 136.533333z m337.066667 0c74.6496 0 135.3088-59.912533 136.516267-134.272L904.533333 644.266667v-238.933334c0-75.4048-61.128533-136.533333-136.533333-136.533333-74.6496 0-135.3088 59.912533-136.516267 134.272L631.466667 405.333333V644.266667c0 75.4048 61.128533 136.533333 136.533333 136.533333zM174.933333 379.733333c28.2752 0 51.2-22.9248 51.2-51.2s-22.9248-51.2-51.2-51.2-51.2 22.9248-51.2 51.2 22.9248 51.2 51.2 51.2z m256 332.8c-37.252267 0-67.541333-29.841067-68.253866-66.922666L362.666667 644.266667v-238.933334c0-37.704533 30.562133-68.266667 68.266666-68.266666 37.252267 0 67.541333 29.841067 68.253867 66.922666L499.2 405.333333V644.266667c0 37.704533-30.562133 68.266667-68.266667 68.266666z m337.066667 0c-37.252267 0-67.541333-29.841067-68.253867-66.922666L699.733333 644.266667v-238.933334c0-37.704533 30.562133-68.266667 68.266667-68.266666 37.252267 0 67.541333 29.841067 68.253867 66.922666L836.266667 405.333333V644.266667c0 37.704533-30.562133 68.266667-68.266667 68.266666z"  horiz-adv-x="1024" />

    
    <glyph glyph-name="xiahuaxian" unicode="&#59017;" d="M351.671467 793.6v-440.810667c0-91.707733 74.3424-166.050133 166.050133-166.050133 90.7904 0 164.565333 72.861867 166.0288 163.3024l0.021333 2.747733V793.6h85.333334v-440.810667c0-138.837333-112.546133-251.383467-251.383467-251.383466-137.4464 0-249.130667 110.306133-251.349333 247.223466l-0.034134 4.16V793.6h85.333334zM806.4 38.647467v-68.266667H251.733333v68.266667z"  horiz-adv-x="1024" />

    
    <glyph glyph-name="zidonghuanhang" unicode="&#59018;" d="M189.653333 785.066667v-806.4h-76.8V785.066667h76.8zM913.066667 785.066667v-806.4h-76.8V785.066667h76.8zM435.2 55.466667l-162.133333 162.133333 162.133333 162.133333v-123.733333h155.938133c69.845333 0 126.472533 56.622933 126.472534 126.472533 0 69.149867-55.496533 125.3376-124.381867 126.455467l-2.090667 0.0128H231.893333v76.8h359.2448c112.264533 0 203.272533-91.008 203.272534-203.268267 0-111.1424-89.198933-201.450667-199.9104-203.246933l-3.362134-0.0256H435.2v-123.733333z"  horiz-adv-x="1024" />

    
    <glyph glyph-name="niantie" unicode="&#59019;" d="M232.413867 785.066667v-116.992H662.229333L662.2208 785.066667h61.845333a34.133333 34.133333 0 0 0 34.133334-34.133334v-191.488h100.151466c18.436267 0 33.3824-14.967467 33.3824-33.429333v-351.850667L687.5776-21.333333H378.466133c-18.432 0-33.3824 14.9632-33.3824 33.425066V104.021333H166.4a34.133333 34.133333 0 0 0-34.133333 34.133334V750.933333a34.133333 34.133333 0 0 0 34.133333 34.133334h66.013867z m609.245866-275.7632H395.157333V28.8l244.701867 0.004267v200.5504l201.796267 0.004266v279.936z m-17.105066-330.077867h-134.621867v-128.917333l134.621867 128.917333z m-249.962667 50.133333c13.828267 0 25.0368-11.221333 25.0368-25.066666a25.053867 25.053867 0 0 0-24.098133-25.053867l-0.938667-0.017067h-116.8384a25.053867 25.053867 0 0 0-25.0368 25.070934 25.053867 25.053867 0 0 0 24.098133 25.0496l0.938667 0.017066h116.8384z m211.498667 153.0752c13.828267 0 25.0368-11.221333 25.0368-25.066666a25.053867 25.053867 0 0 0-24.098134-25.053867l-0.938666-0.017067H459.52a25.053867 25.053867 0 0 0-25.032533 25.070934 25.053867 25.053867 0 0 0 24.098133 25.0496l0.938667 0.017066h326.570666zM640 785.066667v-85.333334H251.733333V785.066667h388.266667z"  horiz-adv-x="1024" />

    
    <glyph glyph-name="zitiyanse" unicode="&#59020;" d="M870.4 89.6v-128H153.6v128h716.8zM551.112533 788.906667L810.666667 187.9296l-90.615467-0.1792L643.810133 362.666667H382.327467l-75.208534-174.737067H213.333333l259.477334 600.797867 78.301866 0.1792z m-38.869333-124.398934L411.707733 430.933333h202.346667l-101.8112 233.5744z"  horiz-adv-x="1024" />

    
    <glyph glyph-name="zengjiasuojin" unicode="&#59021;" d="M878.400797 160.661776a38.240664 38.240664 0 0 0 1.125975-76.464332l-1.125975-0.016996H152.962656a38.240664 38.240664 0 0 0-1.125976 76.468581l1.125976 0.016996h725.438141zM156.089892 500.464066a21.244813 21.244813 0 0 0 29.215867 7.015038l174.360432-106.818921a21.244813 21.244813 0 0 0-0.888033-36.740781L184.417726 268.343237A21.244813 21.244813 0 0 0 152.962656 286.979187v202.378091a21.244813 21.244813 0 0 0 3.127236 11.102539z m722.310905-76.362356a38.240664 38.240664 0 0 0 1.125975-76.464332l-1.125975-0.016996h-366.294573a38.240664 38.240664 0 0 0-1.125975 76.468581l1.125975 0.016996h366.294573z m0 267.952331a38.240664 38.240664 0 0 0 1.125975-76.464331l-1.125975-0.016996H152.962656a38.240664 38.240664 0 0 0-1.125976 76.464332L152.962656 692.049793h725.438141z"  horiz-adv-x="1024" />

    
    <glyph glyph-name="tubiao" unicode="&#59022;" d="M939.144533 73.557333v-68.266666H102.946133v68.266666h836.1984zM302.933333 742.4v-597.333333H93.866667V742.4h209.066666z m315.733334-119.466667v-477.866666H409.6V622.933333h209.066667z m315.733333-110.933333v-366.933333h-209.066667V512h209.066667zM234.666667 674.133333H162.133333v-460.8h72.533334V674.133333z m315.733333-119.466666h-72.533333v-341.333334h72.533333V554.666667z m315.733333-110.933334h-72.533333v-230.4h72.533333v230.4z"  horiz-adv-x="1024" />

    
    <glyph glyph-name="zuoduiqi" unicode="&#59023;" d="M748.8 146.666667v-85.333334H268.8v85.333334h480z m106.666667 186.666666v-85.333333H162.133333v85.333333h693.333334z m-106.666667 186.666667v-85.333333H268.8v85.333333h480z m106.666667 186.666667v-85.333334H162.133333v85.333334h693.333334z"  horiz-adv-x="1024" />

    
    <glyph glyph-name="zhongxinyingyong" unicode="&#59024;" d="M863.138133 758.6432l28.672-47.419733-295.1168-295.1168v-332.2112l-164.983466-86.126934v418.338134L136.593067 711.223467l43.904 47.419733h682.641066zM725.333333 243.2c61.269333 0 110.933333-49.664 110.933334-110.933333s-49.664-110.933333-110.933334-110.933334-110.933333 49.664-110.933333 110.933334 49.664 110.933333 110.933333 110.933333z m0-68.266667c-23.5648 0-42.666667-19.101867-42.666666-42.666666s19.101867-42.666667 42.666666-42.666667 42.666667 19.101867 42.666667 42.666667-19.101867 42.666667-42.666667 42.666666z"  horiz-adv-x="1024" />

    
    <glyph glyph-name="xianshibili" unicode="&#59025;" d="M456.533333 780.8c188.514133 0 341.333333-152.8192 341.333334-341.333333 0-79.330133-27.063467-152.341333-72.465067-210.304l181.213867-181.205334-54.306134-54.306133-180.727466 180.727467C612.885333 126.7072 538.043733 98.133333 456.533333 98.133333c-188.514133 0-341.333333 152.8192-341.333333 341.333334s152.8192 341.333333 341.333333 341.333333z m0-76.8c-146.0992 0-264.533333-118.434133-264.533333-264.533333 0-146.0992 118.434133-264.533333 264.533333-264.533334 146.0992 0 264.533333 118.434133 264.533334 264.533334 0 146.0992-118.434133 264.533333-264.533334 264.533333z m26.6624-101.546667l-0.004266-128.853333h128.853333v-68.266667h-128.853333v-128.853333h-68.266667V405.333333h-128.853333V473.6h128.853333V602.453333h68.266667z"  horiz-adv-x="1024" />

    


  </font>
</defs>
</svg>
